<svg width="384" height="384" viewBox="0 0 384 384" fill="none" xmlns="http://www.w3.org/2000/svg">
<g clip-path="url(#clip0_117_6246)">
<rect width="384" height="384" rx="12" fill="#F3F5F7"/>
<rect x="-385" y="58" width="726" height="326" rx="10" fill="white"/>
<mask id="path-3-inside-1_117_6246" fill="white">
<path d="M-385 135H341V170H-385V135Z"/>
</mask>
<path d="M-385 136H341V134H-385V136ZM341 169H-385V171H341V169Z" fill="#F3F5F7" mask="url(#path-3-inside-1_117_6246)"/>
<path d="M61.132 159L64.336 150.06H65.728L68.932 159H67.672L66.94 156.9H63.124L62.392 159H61.132ZM63.496 155.82H66.568L64.864 150.912H65.2L63.496 155.82ZM69.6865 159V152.532H70.7785V153.852L70.6225 153.648C70.7825 153.24 71.0385 152.928 71.3905 152.712C71.7425 152.496 72.1385 152.388 72.5785 152.388C73.0825 152.388 73.5345 152.528 73.9345 152.808C74.3425 153.088 74.6225 153.456 74.7745 153.912L74.4625 153.924C74.6305 153.42 74.9145 153.04 75.3145 152.784C75.7145 152.52 76.1585 152.388 76.6465 152.388C77.0945 152.388 77.4985 152.492 77.8585 152.7C78.2265 152.908 78.5185 153.196 78.7345 153.564C78.9505 153.932 79.0585 154.348 79.0585 154.812V159H77.9305V155.172C77.9305 154.812 77.8665 154.508 77.7385 154.26C77.6105 154.012 77.4345 153.82 77.2105 153.684C76.9945 153.54 76.7385 153.468 76.4425 153.468C76.1545 153.468 75.8945 153.54 75.6625 153.684C75.4385 153.82 75.2585 154.016 75.1225 154.272C74.9945 154.52 74.9305 154.82 74.9305 155.172V159H73.8025V155.172C73.8025 154.812 73.7385 154.508 73.6105 154.26C73.4825 154.012 73.3065 153.82 73.0825 153.684C72.8665 153.54 72.6105 153.468 72.3145 153.468C72.0265 153.468 71.7665 153.54 71.5345 153.684C71.3105 153.82 71.1305 154.016 70.9945 154.272C70.8665 154.52 70.8025 154.82 70.8025 155.172V159H69.6865ZM83.4755 159.144C82.8515 159.144 82.2875 159 81.7835 158.712C81.2795 158.416 80.8795 158.012 80.5835 157.5C80.2875 156.988 80.1395 156.408 80.1395 155.76C80.1395 155.112 80.2835 154.536 80.5715 154.032C80.8675 153.528 81.2675 153.128 81.7715 152.832C82.2755 152.536 82.8435 152.388 83.4755 152.388C84.0995 152.388 84.6635 152.536 85.1675 152.832C85.6715 153.12 86.0675 153.516 86.3555 154.02C86.6515 154.524 86.7995 155.104 86.7995 155.76C86.7995 156.416 86.6475 157 86.3435 157.512C86.0395 158.016 85.6355 158.416 85.1315 158.712C84.6355 159 84.0835 159.144 83.4755 159.144ZM83.4755 158.064C83.8755 158.064 84.2355 157.964 84.5555 157.764C84.8835 157.564 85.1395 157.288 85.3235 156.936C85.5155 156.584 85.6115 156.192 85.6115 155.76C85.6115 155.32 85.5155 154.932 85.3235 154.596C85.1395 154.252 84.8835 153.98 84.5555 153.78C84.2355 153.572 83.8755 153.468 83.4755 153.468C83.0675 153.468 82.6995 153.572 82.3715 153.78C82.0515 153.98 81.7955 154.252 81.6035 154.596C81.4115 154.932 81.3155 155.32 81.3155 155.76C81.3155 156.192 81.4115 156.584 81.6035 156.936C81.7955 157.288 82.0515 157.564 82.3715 157.764C82.6995 157.964 83.0675 158.064 83.4755 158.064ZM90.3071 159.144C89.8431 159.144 89.4231 159.036 89.0471 158.82C88.6791 158.604 88.3911 158.304 88.1831 157.92C87.9831 157.528 87.8831 157.08 87.8831 156.576V152.532H88.9991V156.456C88.9991 156.776 89.0631 157.056 89.1911 157.296C89.3271 157.536 89.5111 157.724 89.7431 157.86C89.9831 157.996 90.2551 158.064 90.5591 158.064C90.8631 158.064 91.1311 157.996 91.3631 157.86C91.6031 157.724 91.7871 157.528 91.9151 157.272C92.0511 157.016 92.1191 156.712 92.1191 156.36V152.532H93.2471V159H92.1551V157.74L92.3351 157.848C92.1831 158.256 91.9231 158.576 91.5551 158.808C91.1951 159.032 90.7791 159.144 90.3071 159.144ZM94.736 159V152.532H95.828V153.792L95.648 153.684C95.808 153.276 96.064 152.96 96.416 152.736C96.776 152.504 97.196 152.388 97.676 152.388C98.14 152.388 98.552 152.492 98.912 152.7C99.28 152.908 99.568 153.196 99.776 153.564C99.992 153.932 100.1 154.348 100.1 154.812V159H98.972V155.172C98.972 154.812 98.908 154.508 98.78 154.26C98.652 154.012 98.468 153.82 98.228 153.684C97.996 153.54 97.728 153.468 97.424 153.468C97.12 153.468 96.848 153.54 96.608 153.684C96.376 153.82 96.192 154.016 96.056 154.272C95.92 154.52 95.852 154.82 95.852 155.172V159H94.736ZM104.085 159.072C103.453 159.072 102.965 158.892 102.621 158.532C102.285 158.172 102.117 157.664 102.117 157.008V153.6H100.941V152.532H101.181C101.469 152.532 101.697 152.444 101.865 152.268C102.033 152.092 102.117 151.86 102.117 151.572V151.044H103.233V152.532H104.685V153.6H103.233V156.972C103.233 157.188 103.265 157.376 103.329 157.536C103.401 157.696 103.517 157.824 103.677 157.92C103.837 158.008 104.049 158.052 104.313 158.052C104.369 158.052 104.437 158.048 104.517 158.04C104.605 158.032 104.685 158.024 104.757 158.016V159C104.653 159.024 104.537 159.04 104.409 159.048C104.281 159.064 104.173 159.072 104.085 159.072Z" fill="#90A3BF"/>
<path d="M125.96 152.475L122.7 155.735C122.315 156.12 121.685 156.12 121.3 155.735L118.04 152.475" stroke="#90A3BF" stroke-width="1.5" stroke-miterlimit="10" stroke-linecap="round" stroke-linejoin="round"/>
<path d="M212.068 159.144C211.5 159.144 210.98 159.04 210.508 158.832C210.036 158.616 209.636 158.324 209.308 157.956C208.98 157.588 208.744 157.176 208.6 156.72L209.62 156.3C209.836 156.876 210.156 157.32 210.58 157.632C211.012 157.936 211.516 158.088 212.092 158.088C212.444 158.088 212.752 158.032 213.016 157.92C213.28 157.808 213.484 157.652 213.628 157.452C213.78 157.244 213.856 157.004 213.856 156.732C213.856 156.356 213.748 156.06 213.532 155.844C213.324 155.62 213.016 155.452 212.608 155.34L210.964 154.836C210.316 154.636 209.82 154.32 209.476 153.888C209.132 153.456 208.96 152.96 208.96 152.4C208.96 151.912 209.076 151.484 209.308 151.116C209.548 150.74 209.876 150.448 210.292 150.24C210.716 150.024 211.196 149.916 211.732 149.916C212.268 149.916 212.752 150.012 213.184 150.204C213.624 150.396 213.996 150.656 214.3 150.984C214.604 151.304 214.828 151.672 214.972 152.088L213.964 152.508C213.772 152.004 213.484 151.624 213.1 151.368C212.716 151.104 212.264 150.972 211.744 150.972C211.424 150.972 211.14 151.028 210.892 151.14C210.652 151.244 210.464 151.4 210.328 151.608C210.2 151.808 210.136 152.048 210.136 152.328C210.136 152.656 210.24 152.948 210.448 153.204C210.656 153.46 210.972 153.656 211.396 153.792L212.896 154.236C213.6 154.452 214.132 154.76 214.492 155.16C214.852 155.56 215.032 156.056 215.032 156.648C215.032 157.136 214.904 157.568 214.648 157.944C214.4 158.32 214.052 158.616 213.604 158.832C213.164 159.04 212.652 159.144 212.068 159.144ZM219.01 159.072C218.378 159.072 217.89 158.892 217.546 158.532C217.21 158.172 217.042 157.664 217.042 157.008V153.6H215.866V152.532H216.106C216.394 152.532 216.622 152.444 216.79 152.268C216.958 152.092 217.042 151.86 217.042 151.572V151.044H218.158V152.532H219.61V153.6H218.158V156.972C218.158 157.188 218.19 157.376 218.254 157.536C218.326 157.696 218.442 157.824 218.602 157.92C218.762 158.008 218.974 158.052 219.238 158.052C219.294 158.052 219.362 158.048 219.442 158.04C219.53 158.032 219.61 158.024 219.682 158.016V159C219.578 159.024 219.462 159.04 219.334 159.048C219.206 159.064 219.098 159.072 219.01 159.072ZM222.714 159.144C222.29 159.144 221.914 159.068 221.586 158.916C221.266 158.756 221.014 158.54 220.83 158.268C220.646 157.988 220.554 157.668 220.554 157.308C220.554 156.964 220.626 156.656 220.77 156.384C220.922 156.104 221.154 155.868 221.466 155.676C221.786 155.484 222.186 155.348 222.666 155.268L225.066 154.872V155.808L222.918 156.168C222.502 156.24 222.198 156.372 222.006 156.564C221.822 156.756 221.73 156.992 221.73 157.272C221.73 157.536 221.834 157.756 222.042 157.932C222.258 158.108 222.526 158.196 222.846 158.196C223.254 158.196 223.606 158.112 223.902 157.944C224.206 157.768 224.442 157.532 224.61 157.236C224.786 156.94 224.874 156.612 224.874 156.252V154.608C224.874 154.256 224.742 153.972 224.478 153.756C224.222 153.532 223.882 153.42 223.458 153.42C223.09 153.42 222.762 153.516 222.474 153.708C222.194 153.892 221.986 154.14 221.85 154.452L220.878 153.948C220.998 153.652 221.19 153.388 221.454 153.156C221.718 152.916 222.026 152.728 222.378 152.592C222.73 152.456 223.098 152.388 223.482 152.388C223.978 152.388 224.414 152.484 224.79 152.676C225.166 152.86 225.458 153.12 225.666 153.456C225.882 153.784 225.99 154.168 225.99 154.608V159H224.898V157.776L225.102 157.848C224.966 158.104 224.782 158.328 224.55 158.52C224.318 158.712 224.046 158.864 223.734 158.976C223.422 159.088 223.082 159.144 222.714 159.144ZM229.991 159.072C229.359 159.072 228.871 158.892 228.527 158.532C228.191 158.172 228.023 157.664 228.023 157.008V153.6H226.847V152.532H227.087C227.375 152.532 227.603 152.444 227.771 152.268C227.939 152.092 228.023 151.86 228.023 151.572V151.044H229.139V152.532H230.591V153.6H229.139V156.972C229.139 157.188 229.171 157.376 229.235 157.536C229.307 157.696 229.423 157.824 229.583 157.92C229.743 158.008 229.955 158.052 230.219 158.052C230.275 158.052 230.343 158.048 230.423 158.04C230.511 158.032 230.591 158.024 230.663 158.016V159C230.559 159.024 230.443 159.04 230.315 159.048C230.187 159.064 230.079 159.072 229.991 159.072ZM234.173 159.144C233.709 159.144 233.289 159.036 232.913 158.82C232.545 158.604 232.257 158.304 232.049 157.92C231.849 157.528 231.749 157.08 231.749 156.576V152.532H232.865V156.456C232.865 156.776 232.929 157.056 233.057 157.296C233.193 157.536 233.377 157.724 233.609 157.86C233.849 157.996 234.121 158.064 234.425 158.064C234.729 158.064 234.997 157.996 235.229 157.86C235.469 157.724 235.653 157.528 235.781 157.272C235.917 157.016 235.985 156.712 235.985 156.36V152.532H237.113V159H236.021V157.74L236.201 157.848C236.049 158.256 235.789 158.576 235.421 158.808C235.061 159.032 234.645 159.144 234.173 159.144ZM240.917 159.144C240.269 159.144 239.705 158.984 239.225 158.664C238.745 158.344 238.405 157.912 238.205 157.368L239.093 156.936C239.277 157.32 239.529 157.624 239.849 157.848C240.169 158.072 240.525 158.184 240.917 158.184C241.269 158.184 241.561 158.1 241.793 157.932C242.025 157.764 242.141 157.544 242.141 157.272C242.141 157.08 242.085 156.928 241.973 156.816C241.869 156.696 241.741 156.604 241.589 156.54C241.437 156.468 241.297 156.416 241.169 156.384L240.197 156.108C239.613 155.94 239.185 155.7 238.913 155.388C238.649 155.076 238.517 154.712 238.517 154.296C238.517 153.912 238.613 153.58 238.805 153.3C239.005 153.012 239.273 152.788 239.609 152.628C239.953 152.468 240.337 152.388 240.761 152.388C241.329 152.388 241.837 152.532 242.285 152.82C242.741 153.108 243.065 153.512 243.257 154.032L242.345 154.452C242.201 154.116 241.985 153.852 241.697 153.66C241.409 153.46 241.085 153.36 240.725 153.36C240.397 153.36 240.137 153.444 239.945 153.612C239.753 153.772 239.657 153.976 239.657 154.224C239.657 154.408 239.705 154.56 239.801 154.68C239.897 154.792 240.013 154.88 240.149 154.944C240.285 155 240.417 155.048 240.545 155.088L241.601 155.4C242.129 155.552 242.537 155.788 242.825 156.108C243.121 156.428 243.269 156.812 243.269 157.26C243.269 157.62 243.169 157.944 242.969 158.232C242.769 158.52 242.493 158.744 242.141 158.904C241.789 159.064 241.381 159.144 240.917 159.144Z" fill="#90A3BF"/>
<path d="M263.96 152.475L260.7 155.735C260.315 156.12 259.685 156.12 259.3 155.735L256.04 152.475" stroke="#90A3BF" stroke-width="1.5" stroke-miterlimit="10" stroke-linecap="round" stroke-linejoin="round"/>
<g clip-path="url(#clip1_117_6246)">
<path d="M65.088 219.4H66.208V218.14C66.824 218.084 67.3607 217.925 67.818 217.664C68.2847 217.403 68.644 217.062 68.896 216.642C69.1573 216.213 69.288 215.727 69.288 215.186C69.288 213.814 68.4527 212.867 66.782 212.344L66.208 212.162V208.956C66.992 209.189 67.5427 209.726 67.86 210.566L69.232 209.964C69.008 209.329 68.63 208.788 68.098 208.34C67.5753 207.892 66.9453 207.603 66.208 207.472V206.17H65.088V207.416C64.4813 207.453 63.9493 207.603 63.492 207.864C63.0347 208.125 62.6753 208.471 62.414 208.9C62.1527 209.329 62.022 209.819 62.022 210.37C62.022 211.042 62.2273 211.63 62.638 212.134C63.0487 212.629 63.646 212.997 64.43 213.24L65.088 213.45V216.628C64.6213 216.516 64.206 216.301 63.842 215.984C63.4873 215.657 63.212 215.233 63.016 214.71L61.616 215.298C61.8587 216.045 62.288 216.675 62.904 217.188C63.52 217.701 64.248 218.014 65.088 218.126V219.4ZM64.962 211.77C64.5233 211.639 64.1967 211.443 63.982 211.182C63.7673 210.921 63.66 210.622 63.66 210.286C63.66 209.894 63.7907 209.572 64.052 209.32C64.3133 209.068 64.6587 208.914 65.088 208.858V211.812L64.962 211.77ZM66.39 213.856C66.8007 213.987 67.1133 214.164 67.328 214.388C67.552 214.612 67.664 214.915 67.664 215.298C67.664 215.671 67.5333 215.984 67.272 216.236C67.0107 216.479 66.656 216.628 66.208 216.684V213.8L66.39 213.856ZM70.4845 218H77.4145V216.6H72.6685L75.1885 213.912C75.8791 213.165 76.3878 212.526 76.7145 211.994C77.0505 211.453 77.2185 210.897 77.2185 210.328C77.2185 209.749 77.0785 209.241 76.7985 208.802C76.5278 208.363 76.1451 208.023 75.6505 207.78C75.1558 207.528 74.5771 207.402 73.9145 207.402C73.3451 207.402 72.8178 207.514 72.3325 207.738C71.8471 207.962 71.4365 208.279 71.1005 208.69C70.7645 209.091 70.5358 209.567 70.4145 210.118L71.8705 210.538C72.0105 209.997 72.2625 209.586 72.6265 209.306C72.9905 209.017 73.4245 208.872 73.9285 208.872C74.4231 208.872 74.8198 209.012 75.1185 209.292C75.4265 209.572 75.5805 209.959 75.5805 210.454C75.5805 210.762 75.5105 211.056 75.3705 211.336C75.2305 211.616 74.9971 211.943 74.6705 212.316C74.3438 212.68 73.9005 213.161 73.3405 213.758L70.4845 216.81V218ZM79.2016 220.058C80.4616 219.787 81.0916 218.891 81.0916 217.37V216.18H79.4816V218H80.2236C80.1583 218.709 79.8176 219.139 79.2016 219.288V220.058ZM87.2114 218.168C88.0421 218.168 88.7654 217.944 89.3814 217.496C90.0067 217.039 90.4921 216.409 90.8374 215.606C91.1827 214.794 91.3554 213.851 91.3554 212.778C91.3554 211.705 91.1827 210.767 90.8374 209.964C90.4921 209.152 90.0067 208.522 89.3814 208.074C88.7561 207.626 88.0281 207.402 87.1974 207.402C86.3761 207.402 85.6527 207.626 85.0274 208.074C84.4021 208.522 83.9121 209.147 83.5574 209.95C83.2121 210.753 83.0394 211.695 83.0394 212.778C83.0394 213.851 83.2121 214.794 83.5574 215.606C83.9121 216.409 84.4021 217.039 85.0274 217.496C85.6621 217.944 86.3901 218.168 87.2114 218.168ZM87.2114 216.656C86.6981 216.656 86.2501 216.497 85.8674 216.18C85.4941 215.863 85.2047 215.415 84.9994 214.836C84.7941 214.248 84.6914 213.562 84.6914 212.778C84.6914 211.583 84.9154 210.641 85.3634 209.95C85.8207 209.25 86.4321 208.9 87.1974 208.9C87.7201 208.9 88.1681 209.059 88.5414 209.376C88.9147 209.693 89.2041 210.141 89.4094 210.72C89.6147 211.299 89.7174 211.985 89.7174 212.778C89.7174 213.963 89.4934 214.906 89.0454 215.606C88.5974 216.306 87.9861 216.656 87.2114 216.656ZM96.9529 218.168C97.7835 218.168 98.5069 217.944 99.1229 217.496C99.7482 217.039 100.234 216.409 100.579 215.606C100.924 214.794 101.097 213.851 101.097 212.778C101.097 211.705 100.924 210.767 100.579 209.964C100.234 209.152 99.7482 208.522 99.1229 208.074C98.4975 207.626 97.7695 207.402 96.9389 207.402C96.1175 207.402 95.3942 207.626 94.7689 208.074C94.1435 208.522 93.6535 209.147 93.2989 209.95C92.9535 210.753 92.7809 211.695 92.7809 212.778C92.7809 213.851 92.9535 214.794 93.2989 215.606C93.6535 216.409 94.1435 217.039 94.7689 217.496C95.4035 217.944 96.1315 218.168 96.9529 218.168ZM96.9529 216.656C96.4395 216.656 95.9915 216.497 95.6089 216.18C95.2355 215.863 94.9462 215.415 94.7409 214.836C94.5355 214.248 94.4329 213.562 94.4329 212.778C94.4329 211.583 94.6569 210.641 95.1049 209.95C95.5622 209.25 96.1735 208.9 96.9389 208.9C97.4615 208.9 97.9095 209.059 98.2829 209.376C98.6562 209.693 98.9455 210.141 99.1509 210.72C99.3562 211.299 99.4589 211.985 99.4589 212.778C99.4589 213.963 99.2349 214.906 98.7869 215.606C98.3389 216.306 97.7275 216.656 96.9529 216.656ZM106.694 218.168C107.525 218.168 108.248 217.944 108.864 217.496C109.49 217.039 109.975 216.409 110.32 215.606C110.666 214.794 110.838 213.851 110.838 212.778C110.838 211.705 110.666 210.767 110.32 209.964C109.975 209.152 109.49 208.522 108.864 208.074C108.239 207.626 107.511 207.402 106.68 207.402C105.859 207.402 105.136 207.626 104.51 208.074C103.885 208.522 103.395 209.147 103.04 209.95C102.695 210.753 102.522 211.695 102.522 212.778C102.522 213.851 102.695 214.794 103.04 215.606C103.395 216.409 103.885 217.039 104.51 217.496C105.145 217.944 105.873 218.168 106.694 218.168ZM106.694 216.656C106.181 216.656 105.733 216.497 105.35 216.18C104.977 215.863 104.688 215.415 104.482 214.836C104.277 214.248 104.174 213.562 104.174 212.778C104.174 211.583 104.398 210.641 104.846 209.95C105.304 209.25 105.915 208.9 106.68 208.9C107.203 208.9 107.651 209.059 108.024 209.376C108.398 209.693 108.687 210.141 108.892 210.72C109.098 211.299 109.2 211.985 109.2 212.778C109.2 213.963 108.976 214.906 108.528 215.606C108.08 216.306 107.469 216.656 106.694 216.656ZM113.034 218H114.644V216.18H113.034V218ZM121.009 218.168C121.84 218.168 122.563 217.944 123.179 217.496C123.805 217.039 124.29 216.409 124.635 215.606C124.981 214.794 125.153 213.851 125.153 212.778C125.153 211.705 124.981 210.767 124.635 209.964C124.29 209.152 123.805 208.522 123.179 208.074C122.554 207.626 121.826 207.402 120.995 207.402C120.174 207.402 119.451 207.626 118.825 208.074C118.2 208.522 117.71 209.147 117.355 209.95C117.01 210.753 116.837 211.695 116.837 212.778C116.837 213.851 117.01 214.794 117.355 215.606C117.71 216.409 118.2 217.039 118.825 217.496C119.46 217.944 120.188 218.168 121.009 218.168ZM121.009 216.656C120.496 216.656 120.048 216.497 119.665 216.18C119.292 215.863 119.003 215.415 118.797 214.836C118.592 214.248 118.489 213.562 118.489 212.778C118.489 211.583 118.713 210.641 119.161 209.95C119.619 209.25 120.23 208.9 120.995 208.9C121.518 208.9 121.966 209.059 122.339 209.376C122.713 209.693 123.002 210.141 123.207 210.72C123.413 211.299 123.515 211.985 123.515 212.778C123.515 213.963 123.291 214.906 122.843 215.606C122.395 216.306 121.784 216.656 121.009 216.656ZM130.751 218.168C131.582 218.168 132.305 217.944 132.921 217.496C133.546 217.039 134.032 216.409 134.377 215.606C134.722 214.794 134.895 213.851 134.895 212.778C134.895 211.705 134.722 210.767 134.377 209.964C134.032 209.152 133.546 208.522 132.921 208.074C132.296 207.626 131.568 207.402 130.737 207.402C129.916 207.402 129.192 207.626 128.567 208.074C127.942 208.522 127.452 209.147 127.097 209.95C126.752 210.753 126.579 211.695 126.579 212.778C126.579 213.851 126.752 214.794 127.097 215.606C127.452 216.409 127.942 217.039 128.567 217.496C129.202 217.944 129.93 218.168 130.751 218.168ZM130.751 216.656C130.238 216.656 129.79 216.497 129.407 216.18C129.034 215.863 128.744 215.415 128.539 214.836C128.334 214.248 128.231 213.562 128.231 212.778C128.231 211.583 128.455 210.641 128.903 209.95C129.36 209.25 129.972 208.9 130.737 208.9C131.26 208.9 131.708 209.059 132.081 209.376C132.454 209.693 132.744 210.141 132.949 210.72C133.154 211.299 133.257 211.985 133.257 212.778C133.257 213.963 133.033 214.906 132.585 215.606C132.137 216.306 131.526 216.656 130.751 216.656Z" fill="#1A202C"/>
<rect x="204" y="209" width="16" height="16" rx="8" fill="#BCE455" fill-opacity="0.3"/>
<circle cx="212" cy="217" r="4" fill="#7FB519"/>
<path d="M233.088 222.144C232.456 222.144 231.868 222.028 231.324 221.796C230.788 221.564 230.32 221.244 229.92 220.836C229.528 220.42 229.22 219.932 228.996 219.372C228.772 218.812 228.66 218.196 228.66 217.524C228.66 216.86 228.768 216.248 228.984 215.688C229.208 215.12 229.52 214.632 229.92 214.224C230.32 213.808 230.788 213.488 231.324 213.264C231.86 213.032 232.448 212.916 233.088 212.916C233.72 212.916 234.284 213.024 234.78 213.24C235.284 213.456 235.708 213.74 236.052 214.092C236.396 214.436 236.644 214.812 236.796 215.22L235.524 215.82C235.332 215.34 235.024 214.952 234.6 214.656C234.184 214.352 233.68 214.2 233.088 214.2C232.496 214.2 231.972 214.34 231.516 214.62C231.06 214.9 230.704 215.288 230.448 215.784C230.2 216.28 230.076 216.86 230.076 217.524C230.076 218.188 230.2 218.772 230.448 219.276C230.704 219.772 231.06 220.16 231.516 220.44C231.972 220.712 232.496 220.848 233.088 220.848C233.68 220.848 234.184 220.7 234.6 220.404C235.024 220.108 235.332 219.72 235.524 219.24L236.796 219.84C236.644 220.24 236.396 220.616 236.052 220.968C235.708 221.32 235.284 221.604 234.78 221.82C234.284 222.036 233.72 222.144 233.088 222.144ZM240.895 222.144C240.271 222.144 239.699 221.996 239.179 221.7C238.667 221.404 238.259 221 237.955 220.488C237.651 219.976 237.499 219.396 237.499 218.748C237.499 218.092 237.651 217.512 237.955 217.008C238.259 216.496 238.667 216.096 239.179 215.808C239.691 215.512 240.263 215.364 240.895 215.364C241.535 215.364 242.107 215.512 242.611 215.808C243.123 216.096 243.527 216.496 243.823 217.008C244.127 217.512 244.279 218.092 244.279 218.748C244.279 219.404 244.127 219.988 243.823 220.5C243.519 221.012 243.111 221.416 242.599 221.712C242.087 222 241.519 222.144 240.895 222.144ZM240.895 220.884C241.279 220.884 241.619 220.792 241.915 220.608C242.211 220.424 242.443 220.172 242.611 219.852C242.787 219.524 242.875 219.156 242.875 218.748C242.875 218.34 242.787 217.976 242.611 217.656C242.443 217.336 242.211 217.084 241.915 216.9C241.619 216.716 241.279 216.624 240.895 216.624C240.519 216.624 240.179 216.716 239.875 216.9C239.579 217.084 239.343 217.336 239.167 217.656C238.999 217.976 238.915 218.34 238.915 218.748C238.915 219.156 238.999 219.524 239.167 219.852C239.343 220.172 239.579 220.424 239.875 220.608C240.179 220.792 240.519 220.884 240.895 220.884ZM245.363 222V215.508H246.659V216.912L246.491 216.696C246.627 216.256 246.875 215.924 247.235 215.7C247.595 215.476 248.007 215.364 248.471 215.364C248.991 215.364 249.451 215.504 249.851 215.784C250.259 216.056 250.531 216.42 250.667 216.876L250.283 216.912C250.475 216.392 250.767 216.004 251.159 215.748C251.559 215.492 252.015 215.364 252.527 215.364C252.975 215.364 253.379 215.468 253.739 215.676C254.107 215.884 254.399 216.172 254.615 216.54C254.831 216.908 254.939 217.328 254.939 217.8V222H253.583V218.172C253.583 217.844 253.523 217.568 253.403 217.344C253.291 217.112 253.131 216.936 252.923 216.816C252.723 216.688 252.487 216.624 252.215 216.624C251.943 216.624 251.703 216.688 251.495 216.816C251.287 216.936 251.123 217.112 251.003 217.344C250.883 217.576 250.823 217.852 250.823 218.172V222H249.479V218.172C249.479 217.844 249.419 217.568 249.299 217.344C249.187 217.112 249.027 216.936 248.819 216.816C248.619 216.688 248.379 216.624 248.099 216.624C247.827 216.624 247.587 216.688 247.379 216.816C247.171 216.936 247.007 217.112 246.887 217.344C246.775 217.576 246.719 217.852 246.719 218.172V222H245.363ZM256.15 224.4V215.508H257.446V216.852L257.29 216.54C257.53 216.172 257.85 215.884 258.25 215.676C258.65 215.468 259.106 215.364 259.618 215.364C260.234 215.364 260.786 215.512 261.274 215.808C261.77 216.104 262.158 216.508 262.438 217.02C262.726 217.532 262.87 218.108 262.87 218.748C262.87 219.388 262.726 219.964 262.438 220.476C262.158 220.988 261.774 221.396 261.286 221.7C260.798 221.996 260.242 222.144 259.618 222.144C259.114 222.144 258.654 222.04 258.238 221.832C257.83 221.624 257.514 221.324 257.29 220.932L257.506 220.68V224.4H256.15ZM259.486 220.884C259.87 220.884 260.21 220.792 260.506 220.608C260.802 220.424 261.034 220.172 261.202 219.852C261.378 219.524 261.466 219.156 261.466 218.748C261.466 218.34 261.378 217.976 261.202 217.656C261.034 217.336 260.802 217.084 260.506 216.9C260.21 216.716 259.87 216.624 259.486 216.624C259.11 216.624 258.77 216.716 258.466 216.9C258.17 217.084 257.934 217.336 257.758 217.656C257.59 217.976 257.506 218.34 257.506 218.748C257.506 219.156 257.59 219.524 257.758 219.852C257.934 220.172 258.17 220.424 258.466 220.608C258.77 220.792 259.11 220.884 259.486 220.884ZM263.949 222V212.916H265.305V222H263.949ZM269.699 222.144C269.051 222.144 268.475 221.996 267.971 221.7C267.475 221.396 267.087 220.988 266.807 220.476C266.527 219.956 266.387 219.376 266.387 218.736C266.387 218.08 266.527 217.5 266.807 216.996C267.095 216.492 267.479 216.096 267.959 215.808C268.439 215.512 268.983 215.364 269.591 215.364C270.079 215.364 270.515 215.448 270.899 215.616C271.283 215.784 271.607 216.016 271.871 216.312C272.135 216.6 272.335 216.932 272.471 217.308C272.615 217.684 272.687 218.084 272.687 218.508C272.687 218.612 272.683 218.72 272.675 218.832C272.667 218.944 272.651 219.048 272.627 219.144H267.455V218.064H271.859L271.211 218.556C271.291 218.164 271.263 217.816 271.127 217.512C270.999 217.2 270.799 216.956 270.527 216.78C270.263 216.596 269.951 216.504 269.591 216.504C269.231 216.504 268.911 216.596 268.631 216.78C268.351 216.956 268.135 217.212 267.983 217.548C267.831 217.876 267.771 218.276 267.803 218.748C267.763 219.188 267.823 219.572 267.983 219.9C268.151 220.228 268.383 220.484 268.679 220.668C268.983 220.852 269.327 220.944 269.711 220.944C270.103 220.944 270.435 220.856 270.707 220.68C270.987 220.504 271.207 220.276 271.367 219.996L272.471 220.536C272.343 220.84 272.143 221.116 271.871 221.364C271.607 221.604 271.287 221.796 270.911 221.94C270.543 222.076 270.139 222.144 269.699 222.144ZM276.578 222.072C275.898 222.072 275.37 221.88 274.994 221.496C274.618 221.112 274.43 220.572 274.43 219.876V216.732H273.29V215.508H273.47C273.774 215.508 274.01 215.42 274.178 215.244C274.346 215.068 274.43 214.828 274.43 214.524V214.02H275.786V215.508H277.262V216.732H275.786V219.816C275.786 220.04 275.822 220.232 275.894 220.392C275.966 220.544 276.082 220.664 276.242 220.752C276.402 220.832 276.61 220.872 276.866 220.872C276.93 220.872 277.002 220.868 277.082 220.86C277.162 220.852 277.238 220.844 277.31 220.836V222C277.198 222.016 277.074 222.032 276.938 222.048C276.802 222.064 276.682 222.072 276.578 222.072ZM281.324 222.144C280.676 222.144 280.1 221.996 279.596 221.7C279.1 221.396 278.712 220.988 278.432 220.476C278.152 219.956 278.012 219.376 278.012 218.736C278.012 218.08 278.152 217.5 278.432 216.996C278.72 216.492 279.104 216.096 279.584 215.808C280.064 215.512 280.608 215.364 281.216 215.364C281.704 215.364 282.14 215.448 282.524 215.616C282.908 215.784 283.232 216.016 283.496 216.312C283.76 216.6 283.96 216.932 284.096 217.308C284.24 217.684 284.312 218.084 284.312 218.508C284.312 218.612 284.308 218.72 284.3 218.832C284.292 218.944 284.276 219.048 284.252 219.144H279.08V218.064H283.484L282.836 218.556C282.916 218.164 282.888 217.816 282.752 217.512C282.624 217.2 282.424 216.956 282.152 216.78C281.888 216.596 281.576 216.504 281.216 216.504C280.856 216.504 280.536 216.596 280.256 216.78C279.976 216.956 279.76 217.212 279.608 217.548C279.456 217.876 279.396 218.276 279.428 218.748C279.388 219.188 279.448 219.572 279.608 219.9C279.776 220.228 280.008 220.484 280.304 220.668C280.608 220.852 280.952 220.944 281.336 220.944C281.728 220.944 282.06 220.856 282.332 220.68C282.612 220.504 282.832 220.276 282.992 219.996L284.096 220.536C283.968 220.84 283.768 221.116 283.496 221.364C283.232 221.604 282.912 221.796 282.536 221.94C282.168 222.076 281.764 222.144 281.324 222.144ZM288.395 222.144C287.771 222.144 287.211 221.996 286.715 221.7C286.227 221.396 285.839 220.988 285.551 220.476C285.271 219.964 285.131 219.388 285.131 218.748C285.131 218.108 285.275 217.532 285.563 217.02C285.851 216.508 286.239 216.104 286.727 215.808C287.215 215.512 287.767 215.364 288.383 215.364C288.903 215.364 289.363 215.468 289.763 215.676C290.163 215.884 290.479 216.172 290.711 216.54L290.507 216.852V212.916H291.851V222H290.567V220.68L290.723 220.932C290.499 221.324 290.179 221.624 289.763 221.832C289.347 222.04 288.891 222.144 288.395 222.144ZM288.527 220.884C288.903 220.884 289.239 220.792 289.535 220.608C289.839 220.424 290.075 220.172 290.243 219.852C290.419 219.524 290.507 219.156 290.507 218.748C290.507 218.34 290.419 217.976 290.243 217.656C290.075 217.336 289.839 217.084 289.535 216.9C289.239 216.716 288.903 216.624 288.527 216.624C288.151 216.624 287.811 216.716 287.507 216.9C287.203 217.084 286.967 217.336 286.799 217.656C286.631 217.976 286.547 218.34 286.547 218.748C286.547 219.156 286.631 219.524 286.799 219.852C286.967 220.172 287.199 220.424 287.495 220.608C287.799 220.792 288.143 220.884 288.527 220.884Z" fill="#1A202C"/>
</g>
<path d="M-364 244H301" stroke="#F3F5F7"/>
<path d="M65.088 283.4H66.208V282.14C66.824 282.084 67.3607 281.925 67.818 281.664C68.2847 281.403 68.644 281.062 68.896 280.642C69.1573 280.213 69.288 279.727 69.288 279.186C69.288 277.814 68.4527 276.867 66.782 276.344L66.208 276.162V272.956C66.992 273.189 67.5427 273.726 67.86 274.566L69.232 273.964C69.008 273.329 68.63 272.788 68.098 272.34C67.5753 271.892 66.9453 271.603 66.208 271.472V270.17H65.088V271.416C64.4813 271.453 63.9493 271.603 63.492 271.864C63.0347 272.125 62.6753 272.471 62.414 272.9C62.1527 273.329 62.022 273.819 62.022 274.37C62.022 275.042 62.2273 275.63 62.638 276.134C63.0487 276.629 63.646 276.997 64.43 277.24L65.088 277.45V280.628C64.6213 280.516 64.206 280.301 63.842 279.984C63.4873 279.657 63.212 279.233 63.016 278.71L61.616 279.298C61.8587 280.045 62.288 280.675 62.904 281.188C63.52 281.701 64.248 282.014 65.088 282.126V283.4ZM64.962 275.77C64.5233 275.639 64.1967 275.443 63.982 275.182C63.7673 274.921 63.66 274.622 63.66 274.286C63.66 273.894 63.7907 273.572 64.052 273.32C64.3133 273.068 64.6587 272.914 65.088 272.858V275.812L64.962 275.77ZM66.39 277.856C66.8007 277.987 67.1133 278.164 67.328 278.388C67.552 278.612 67.664 278.915 67.664 279.298C67.664 279.671 67.5333 279.984 67.272 280.236C67.0107 280.479 66.656 280.628 66.208 280.684V277.8L66.39 277.856ZM70.4845 282H77.4145V280.6H72.6685L75.1885 277.912C75.8791 277.165 76.3878 276.526 76.7145 275.994C77.0505 275.453 77.2185 274.897 77.2185 274.328C77.2185 273.749 77.0785 273.241 76.7985 272.802C76.5278 272.363 76.1451 272.023 75.6505 271.78C75.1558 271.528 74.5771 271.402 73.9145 271.402C73.3451 271.402 72.8178 271.514 72.3325 271.738C71.8471 271.962 71.4365 272.279 71.1005 272.69C70.7645 273.091 70.5358 273.567 70.4145 274.118L71.8705 274.538C72.0105 273.997 72.2625 273.586 72.6265 273.306C72.9905 273.017 73.4245 272.872 73.9285 272.872C74.4231 272.872 74.8198 273.012 75.1185 273.292C75.4265 273.572 75.5805 273.959 75.5805 274.454C75.5805 274.762 75.5105 275.056 75.3705 275.336C75.2305 275.616 74.9971 275.943 74.6705 276.316C74.3438 276.68 73.9005 277.161 73.3405 277.758L70.4845 280.81V282ZM79.2016 284.058C80.4616 283.787 81.0916 282.891 81.0916 281.37V280.18H79.4816V282H80.2236C80.1583 282.709 79.8176 283.139 79.2016 283.288V284.058ZM87.2114 282.168C88.0421 282.168 88.7654 281.944 89.3814 281.496C90.0067 281.039 90.4921 280.409 90.8374 279.606C91.1827 278.794 91.3554 277.851 91.3554 276.778C91.3554 275.705 91.1827 274.767 90.8374 273.964C90.4921 273.152 90.0067 272.522 89.3814 272.074C88.7561 271.626 88.0281 271.402 87.1974 271.402C86.3761 271.402 85.6527 271.626 85.0274 272.074C84.4021 272.522 83.9121 273.147 83.5574 273.95C83.2121 274.753 83.0394 275.695 83.0394 276.778C83.0394 277.851 83.2121 278.794 83.5574 279.606C83.9121 280.409 84.4021 281.039 85.0274 281.496C85.6621 281.944 86.3901 282.168 87.2114 282.168ZM87.2114 280.656C86.6981 280.656 86.2501 280.497 85.8674 280.18C85.4941 279.863 85.2047 279.415 84.9994 278.836C84.7941 278.248 84.6914 277.562 84.6914 276.778C84.6914 275.583 84.9154 274.641 85.3634 273.95C85.8207 273.25 86.4321 272.9 87.1974 272.9C87.7201 272.9 88.1681 273.059 88.5414 273.376C88.9147 273.693 89.2041 274.141 89.4094 274.72C89.6147 275.299 89.7174 275.985 89.7174 276.778C89.7174 277.963 89.4934 278.906 89.0454 279.606C88.5974 280.306 87.9861 280.656 87.2114 280.656ZM96.9529 282.168C97.7835 282.168 98.5069 281.944 99.1229 281.496C99.7482 281.039 100.234 280.409 100.579 279.606C100.924 278.794 101.097 277.851 101.097 276.778C101.097 275.705 100.924 274.767 100.579 273.964C100.234 273.152 99.7482 272.522 99.1229 272.074C98.4975 271.626 97.7695 271.402 96.9389 271.402C96.1175 271.402 95.3942 271.626 94.7689 272.074C94.1435 272.522 93.6535 273.147 93.2989 273.95C92.9535 274.753 92.7809 275.695 92.7809 276.778C92.7809 277.851 92.9535 278.794 93.2989 279.606C93.6535 280.409 94.1435 281.039 94.7689 281.496C95.4035 281.944 96.1315 282.168 96.9529 282.168ZM96.9529 280.656C96.4395 280.656 95.9915 280.497 95.6089 280.18C95.2355 279.863 94.9462 279.415 94.7409 278.836C94.5355 278.248 94.4329 277.562 94.4329 276.778C94.4329 275.583 94.6569 274.641 95.1049 273.95C95.5622 273.25 96.1735 272.9 96.9389 272.9C97.4615 272.9 97.9095 273.059 98.2829 273.376C98.6562 273.693 98.9455 274.141 99.1509 274.72C99.3562 275.299 99.4589 275.985 99.4589 276.778C99.4589 277.963 99.2349 278.906 98.7869 279.606C98.3389 280.306 97.7275 280.656 96.9529 280.656ZM106.694 282.168C107.525 282.168 108.248 281.944 108.864 281.496C109.49 281.039 109.975 280.409 110.32 279.606C110.666 278.794 110.838 277.851 110.838 276.778C110.838 275.705 110.666 274.767 110.32 273.964C109.975 273.152 109.49 272.522 108.864 272.074C108.239 271.626 107.511 271.402 106.68 271.402C105.859 271.402 105.136 271.626 104.51 272.074C103.885 272.522 103.395 273.147 103.04 273.95C102.695 274.753 102.522 275.695 102.522 276.778C102.522 277.851 102.695 278.794 103.04 279.606C103.395 280.409 103.885 281.039 104.51 281.496C105.145 281.944 105.873 282.168 106.694 282.168ZM106.694 280.656C106.181 280.656 105.733 280.497 105.35 280.18C104.977 279.863 104.688 279.415 104.482 278.836C104.277 278.248 104.174 277.562 104.174 276.778C104.174 275.583 104.398 274.641 104.846 273.95C105.304 273.25 105.915 272.9 106.68 272.9C107.203 272.9 107.651 273.059 108.024 273.376C108.398 273.693 108.687 274.141 108.892 274.72C109.098 275.299 109.2 275.985 109.2 276.778C109.2 277.963 108.976 278.906 108.528 279.606C108.08 280.306 107.469 280.656 106.694 280.656ZM113.034 282H114.644V280.18H113.034V282ZM121.009 282.168C121.84 282.168 122.563 281.944 123.179 281.496C123.805 281.039 124.29 280.409 124.635 279.606C124.981 278.794 125.153 277.851 125.153 276.778C125.153 275.705 124.981 274.767 124.635 273.964C124.29 273.152 123.805 272.522 123.179 272.074C122.554 271.626 121.826 271.402 120.995 271.402C120.174 271.402 119.451 271.626 118.825 272.074C118.2 272.522 117.71 273.147 117.355 273.95C117.01 274.753 116.837 275.695 116.837 276.778C116.837 277.851 117.01 278.794 117.355 279.606C117.71 280.409 118.2 281.039 118.825 281.496C119.46 281.944 120.188 282.168 121.009 282.168ZM121.009 280.656C120.496 280.656 120.048 280.497 119.665 280.18C119.292 279.863 119.003 279.415 118.797 278.836C118.592 278.248 118.489 277.562 118.489 276.778C118.489 275.583 118.713 274.641 119.161 273.95C119.619 273.25 120.23 272.9 120.995 272.9C121.518 272.9 121.966 273.059 122.339 273.376C122.713 273.693 123.002 274.141 123.207 274.72C123.413 275.299 123.515 275.985 123.515 276.778C123.515 277.963 123.291 278.906 122.843 279.606C122.395 280.306 121.784 280.656 121.009 280.656ZM130.751 282.168C131.582 282.168 132.305 281.944 132.921 281.496C133.546 281.039 134.032 280.409 134.377 279.606C134.722 278.794 134.895 277.851 134.895 276.778C134.895 275.705 134.722 274.767 134.377 273.964C134.032 273.152 133.546 272.522 132.921 272.074C132.296 271.626 131.568 271.402 130.737 271.402C129.916 271.402 129.192 271.626 128.567 272.074C127.942 272.522 127.452 273.147 127.097 273.95C126.752 274.753 126.579 275.695 126.579 276.778C126.579 277.851 126.752 278.794 127.097 279.606C127.452 280.409 127.942 281.039 128.567 281.496C129.202 281.944 129.93 282.168 130.751 282.168ZM130.751 280.656C130.238 280.656 129.79 280.497 129.407 280.18C129.034 279.863 128.744 279.415 128.539 278.836C128.334 278.248 128.231 277.562 128.231 276.778C128.231 275.583 128.455 274.641 128.903 273.95C129.36 273.25 129.972 272.9 130.737 272.9C131.26 272.9 131.708 273.059 132.081 273.376C132.454 273.693 132.744 274.141 132.949 274.72C133.154 275.299 133.257 275.985 133.257 276.778C133.257 277.963 133.033 278.906 132.585 279.606C132.137 280.306 131.526 280.656 130.751 280.656Z" fill="#1A202C"/>
<rect x="204" y="273" width="16" height="16" rx="8" fill="#DBA32A" fill-opacity="0.14"/>
<circle cx="212" cy="281" r="4" fill="#DBA32A"/>
<path d="M228.924 286H230.34V282.64H232.176C232.776 282.64 233.304 282.528 233.76 282.304C234.224 282.08 234.584 281.76 234.84 281.344C235.096 280.928 235.224 280.432 235.224 279.856C235.224 279.272 235.096 278.772 234.84 278.356C234.584 277.94 234.224 277.62 233.76 277.396C233.304 277.172 232.776 277.06 232.176 277.06H228.924V286ZM230.34 281.38V278.32H232.212C232.692 278.32 233.08 278.456 233.376 278.728C233.672 279 233.82 279.372 233.82 279.844C233.82 280.308 233.672 280.68 233.376 280.96C233.08 281.24 232.692 281.38 232.212 281.38H230.34ZM239.123 286.144C239.787 286.144 240.363 285.992 240.851 285.688C241.347 285.384 241.695 285 241.895 284.536L240.791 283.996C240.631 284.268 240.411 284.496 240.131 284.68C239.859 284.856 239.527 284.944 239.135 284.944C238.623 284.944 238.187 284.784 237.827 284.464C237.467 284.136 237.267 283.696 237.227 283.144H242.051C242.075 283.048 242.091 282.944 242.099 282.832C242.107 282.72 242.111 282.612 242.111 282.508C242.111 281.948 241.987 281.432 241.739 280.96C241.499 280.48 241.147 280.096 240.683 279.808C240.227 279.512 239.671 279.364 239.015 279.364C238.407 279.364 237.859 279.512 237.371 279.808C236.891 280.096 236.511 280.496 236.231 281.008C235.951 281.512 235.811 282.088 235.811 282.736C235.811 283.376 235.951 283.956 236.231 284.476C236.519 284.988 236.911 285.396 237.407 285.7C237.903 285.996 238.475 286.144 239.123 286.144ZM239.015 280.504C239.471 280.504 239.855 280.648 240.167 280.936C240.479 281.224 240.647 281.6 240.671 282.064H237.251C237.331 281.568 237.535 281.184 237.863 280.912C238.191 280.64 238.575 280.504 239.015 280.504ZM243.195 286H244.551V282.172C244.551 281.692 244.687 281.316 244.959 281.044C245.231 280.764 245.575 280.624 245.991 280.624C246.415 280.624 246.759 280.764 247.023 281.044C247.295 281.316 247.431 281.692 247.431 282.172V286H248.775V281.8C248.775 281.32 248.667 280.9 248.451 280.54C248.243 280.172 247.955 279.884 247.587 279.676C247.219 279.468 246.799 279.364 246.327 279.364C245.927 279.364 245.567 279.444 245.247 279.604C244.927 279.764 244.675 279.996 244.491 280.3V279.508H243.195V286ZM252.986 286.144C253.434 286.144 253.846 286.06 254.222 285.892C254.606 285.724 254.918 285.48 255.158 285.16V286H256.442V276.916H255.098V280.264C254.858 279.984 254.554 279.764 254.186 279.604C253.826 279.444 253.422 279.364 252.974 279.364C252.358 279.364 251.802 279.512 251.306 279.808C250.818 280.104 250.43 280.508 250.142 281.02C249.862 281.532 249.722 282.108 249.722 282.748C249.722 283.388 249.862 283.964 250.142 284.476C250.43 284.988 250.818 285.396 251.306 285.7C251.802 285.996 252.362 286.144 252.986 286.144ZM253.118 284.884C252.734 284.884 252.39 284.792 252.086 284.608C251.79 284.424 251.558 284.172 251.39 283.852C251.222 283.524 251.138 283.156 251.138 282.748C251.138 282.34 251.222 281.976 251.39 281.656C251.566 281.336 251.802 281.084 252.098 280.9C252.402 280.716 252.742 280.624 253.118 280.624C253.494 280.624 253.83 280.716 254.126 280.9C254.43 281.084 254.666 281.336 254.834 281.656C255.01 281.976 255.098 282.34 255.098 282.748C255.098 283.156 255.01 283.524 254.834 283.852C254.666 284.172 254.43 284.424 254.126 284.608C253.83 284.792 253.494 284.884 253.118 284.884ZM257.785 278.62H259.141V277.06H257.785V278.62ZM257.785 286H259.141V279.508H257.785V286ZM260.487 286H261.843V282.172C261.843 281.692 261.979 281.316 262.251 281.044C262.523 280.764 262.867 280.624 263.283 280.624C263.707 280.624 264.051 280.764 264.315 281.044C264.587 281.316 264.723 281.692 264.723 282.172V286H266.067V281.8C266.067 281.32 265.959 280.9 265.743 280.54C265.535 280.172 265.247 279.884 264.879 279.676C264.511 279.468 264.091 279.364 263.619 279.364C263.219 279.364 262.859 279.444 262.539 279.604C262.219 279.764 261.967 279.996 261.783 280.3V279.508H260.487V286ZM270.41 288.64C271.026 288.64 271.57 288.512 272.042 288.256C272.514 288.008 272.882 287.66 273.146 287.212C273.418 286.772 273.554 286.268 273.554 285.7V279.508H272.27V280.348C271.758 279.692 271.058 279.364 270.17 279.364C269.562 279.364 269.018 279.504 268.538 279.784C268.066 280.064 267.694 280.448 267.422 280.936C267.15 281.416 267.014 281.96 267.014 282.568C267.014 283.176 267.15 283.724 267.422 284.212C267.702 284.692 268.078 285.076 268.55 285.364C269.03 285.644 269.574 285.784 270.182 285.784C270.598 285.784 270.982 285.708 271.334 285.556C271.686 285.396 271.978 285.168 272.21 284.872V285.7C272.21 286.236 272.038 286.648 271.694 286.936C271.35 287.232 270.918 287.38 270.398 287.38C269.958 287.38 269.586 287.28 269.282 287.08C268.986 286.88 268.782 286.628 268.67 286.324L267.422 286.84C267.63 287.376 268.002 287.808 268.538 288.136C269.074 288.472 269.698 288.64 270.41 288.64ZM270.338 284.524C269.97 284.524 269.642 284.44 269.354 284.272C269.066 284.096 268.838 283.86 268.67 283.564C268.51 283.268 268.43 282.94 268.43 282.58C268.43 282.212 268.51 281.88 268.67 281.584C268.838 281.288 269.066 281.056 269.354 280.888C269.642 280.712 269.97 280.624 270.338 280.624C270.69 280.624 271.006 280.712 271.286 280.888C271.574 281.056 271.798 281.288 271.958 281.584C272.126 281.88 272.21 282.212 272.21 282.58C272.21 282.948 272.126 283.28 271.958 283.576C271.798 283.864 271.578 284.096 271.298 284.272C271.018 284.44 270.698 284.524 270.338 284.524Z" fill="#1A202C"/>
<path d="M-364 308H301" stroke="#F3F5F7"/>
<path d="M65.088 347.4H66.208V346.14C66.824 346.084 67.3607 345.925 67.818 345.664C68.2847 345.403 68.644 345.062 68.896 344.642C69.1573 344.213 69.288 343.727 69.288 343.186C69.288 341.814 68.4527 340.867 66.782 340.344L66.208 340.162V336.956C66.992 337.189 67.5427 337.726 67.86 338.566L69.232 337.964C69.008 337.329 68.63 336.788 68.098 336.34C67.5753 335.892 66.9453 335.603 66.208 335.472V334.17H65.088V335.416C64.4813 335.453 63.9493 335.603 63.492 335.864C63.0347 336.125 62.6753 336.471 62.414 336.9C62.1527 337.329 62.022 337.819 62.022 338.37C62.022 339.042 62.2273 339.63 62.638 340.134C63.0487 340.629 63.646 340.997 64.43 341.24L65.088 341.45V344.628C64.6213 344.516 64.206 344.301 63.842 343.984C63.4873 343.657 63.212 343.233 63.016 342.71L61.616 343.298C61.8587 344.045 62.288 344.675 62.904 345.188C63.52 345.701 64.248 346.014 65.088 346.126V347.4ZM64.962 339.77C64.5233 339.639 64.1967 339.443 63.982 339.182C63.7673 338.921 63.66 338.622 63.66 338.286C63.66 337.894 63.7907 337.572 64.052 337.32C64.3133 337.068 64.6587 336.914 65.088 336.858V339.812L64.962 339.77ZM66.39 341.856C66.8007 341.987 67.1133 342.164 67.328 342.388C67.552 342.612 67.664 342.915 67.664 343.298C67.664 343.671 67.5333 343.984 67.272 344.236C67.0107 344.479 66.656 344.628 66.208 344.684V341.8L66.39 341.856ZM70.4845 346H77.4145V344.6H72.6685L75.1885 341.912C75.8791 341.165 76.3878 340.526 76.7145 339.994C77.0505 339.453 77.2185 338.897 77.2185 338.328C77.2185 337.749 77.0785 337.241 76.7985 336.802C76.5278 336.363 76.1451 336.023 75.6505 335.78C75.1558 335.528 74.5771 335.402 73.9145 335.402C73.3451 335.402 72.8178 335.514 72.3325 335.738C71.8471 335.962 71.4365 336.279 71.1005 336.69C70.7645 337.091 70.5358 337.567 70.4145 338.118L71.8705 338.538C72.0105 337.997 72.2625 337.586 72.6265 337.306C72.9905 337.017 73.4245 336.872 73.9285 336.872C74.4231 336.872 74.8198 337.012 75.1185 337.292C75.4265 337.572 75.5805 337.959 75.5805 338.454C75.5805 338.762 75.5105 339.056 75.3705 339.336C75.2305 339.616 74.9971 339.943 74.6705 340.316C74.3438 340.68 73.9005 341.161 73.3405 341.758L70.4845 344.81V346ZM79.2016 348.058C80.4616 347.787 81.0916 346.891 81.0916 345.37V344.18H79.4816V346H80.2236C80.1583 346.709 79.8176 347.139 79.2016 347.288V348.058ZM87.2114 346.168C88.0421 346.168 88.7654 345.944 89.3814 345.496C90.0067 345.039 90.4921 344.409 90.8374 343.606C91.1827 342.794 91.3554 341.851 91.3554 340.778C91.3554 339.705 91.1827 338.767 90.8374 337.964C90.4921 337.152 90.0067 336.522 89.3814 336.074C88.7561 335.626 88.0281 335.402 87.1974 335.402C86.3761 335.402 85.6527 335.626 85.0274 336.074C84.4021 336.522 83.9121 337.147 83.5574 337.95C83.2121 338.753 83.0394 339.695 83.0394 340.778C83.0394 341.851 83.2121 342.794 83.5574 343.606C83.9121 344.409 84.4021 345.039 85.0274 345.496C85.6621 345.944 86.3901 346.168 87.2114 346.168ZM87.2114 344.656C86.6981 344.656 86.2501 344.497 85.8674 344.18C85.4941 343.863 85.2047 343.415 84.9994 342.836C84.7941 342.248 84.6914 341.562 84.6914 340.778C84.6914 339.583 84.9154 338.641 85.3634 337.95C85.8207 337.25 86.4321 336.9 87.1974 336.9C87.7201 336.9 88.1681 337.059 88.5414 337.376C88.9147 337.693 89.2041 338.141 89.4094 338.72C89.6147 339.299 89.7174 339.985 89.7174 340.778C89.7174 341.963 89.4934 342.906 89.0454 343.606C88.5974 344.306 87.9861 344.656 87.2114 344.656ZM96.9529 346.168C97.7835 346.168 98.5069 345.944 99.1229 345.496C99.7482 345.039 100.234 344.409 100.579 343.606C100.924 342.794 101.097 341.851 101.097 340.778C101.097 339.705 100.924 338.767 100.579 337.964C100.234 337.152 99.7482 336.522 99.1229 336.074C98.4975 335.626 97.7695 335.402 96.9389 335.402C96.1175 335.402 95.3942 335.626 94.7689 336.074C94.1435 336.522 93.6535 337.147 93.2989 337.95C92.9535 338.753 92.7809 339.695 92.7809 340.778C92.7809 341.851 92.9535 342.794 93.2989 343.606C93.6535 344.409 94.1435 345.039 94.7689 345.496C95.4035 345.944 96.1315 346.168 96.9529 346.168ZM96.9529 344.656C96.4395 344.656 95.9915 344.497 95.6089 344.18C95.2355 343.863 94.9462 343.415 94.7409 342.836C94.5355 342.248 94.4329 341.562 94.4329 340.778C94.4329 339.583 94.6569 338.641 95.1049 337.95C95.5622 337.25 96.1735 336.9 96.9389 336.9C97.4615 336.9 97.9095 337.059 98.2829 337.376C98.6562 337.693 98.9455 338.141 99.1509 338.72C99.3562 339.299 99.4589 339.985 99.4589 340.778C99.4589 341.963 99.2349 342.906 98.7869 343.606C98.3389 344.306 97.7275 344.656 96.9529 344.656ZM106.694 346.168C107.525 346.168 108.248 345.944 108.864 345.496C109.49 345.039 109.975 344.409 110.32 343.606C110.666 342.794 110.838 341.851 110.838 340.778C110.838 339.705 110.666 338.767 110.32 337.964C109.975 337.152 109.49 336.522 108.864 336.074C108.239 335.626 107.511 335.402 106.68 335.402C105.859 335.402 105.136 335.626 104.51 336.074C103.885 336.522 103.395 337.147 103.04 337.95C102.695 338.753 102.522 339.695 102.522 340.778C102.522 341.851 102.695 342.794 103.04 343.606C103.395 344.409 103.885 345.039 104.51 345.496C105.145 345.944 105.873 346.168 106.694 346.168ZM106.694 344.656C106.181 344.656 105.733 344.497 105.35 344.18C104.977 343.863 104.688 343.415 104.482 342.836C104.277 342.248 104.174 341.562 104.174 340.778C104.174 339.583 104.398 338.641 104.846 337.95C105.304 337.25 105.915 336.9 106.68 336.9C107.203 336.9 107.651 337.059 108.024 337.376C108.398 337.693 108.687 338.141 108.892 338.72C109.098 339.299 109.2 339.985 109.2 340.778C109.2 341.963 108.976 342.906 108.528 343.606C108.08 344.306 107.469 344.656 106.694 344.656ZM113.034 346H114.644V344.18H113.034V346ZM121.009 346.168C121.84 346.168 122.563 345.944 123.179 345.496C123.805 345.039 124.29 344.409 124.635 343.606C124.981 342.794 125.153 341.851 125.153 340.778C125.153 339.705 124.981 338.767 124.635 337.964C124.29 337.152 123.805 336.522 123.179 336.074C122.554 335.626 121.826 335.402 120.995 335.402C120.174 335.402 119.451 335.626 118.825 336.074C118.2 336.522 117.71 337.147 117.355 337.95C117.01 338.753 116.837 339.695 116.837 340.778C116.837 341.851 117.01 342.794 117.355 343.606C117.71 344.409 118.2 345.039 118.825 345.496C119.46 345.944 120.188 346.168 121.009 346.168ZM121.009 344.656C120.496 344.656 120.048 344.497 119.665 344.18C119.292 343.863 119.003 343.415 118.797 342.836C118.592 342.248 118.489 341.562 118.489 340.778C118.489 339.583 118.713 338.641 119.161 337.95C119.619 337.25 120.23 336.9 120.995 336.9C121.518 336.9 121.966 337.059 122.339 337.376C122.713 337.693 123.002 338.141 123.207 338.72C123.413 339.299 123.515 339.985 123.515 340.778C123.515 341.963 123.291 342.906 122.843 343.606C122.395 344.306 121.784 344.656 121.009 344.656ZM130.751 346.168C131.582 346.168 132.305 345.944 132.921 345.496C133.546 345.039 134.032 344.409 134.377 343.606C134.722 342.794 134.895 341.851 134.895 340.778C134.895 339.705 134.722 338.767 134.377 337.964C134.032 337.152 133.546 336.522 132.921 336.074C132.296 335.626 131.568 335.402 130.737 335.402C129.916 335.402 129.192 335.626 128.567 336.074C127.942 336.522 127.452 337.147 127.097 337.95C126.752 338.753 126.579 339.695 126.579 340.778C126.579 341.851 126.752 342.794 127.097 343.606C127.452 344.409 127.942 345.039 128.567 345.496C129.202 345.944 129.93 346.168 130.751 346.168ZM130.751 344.656C130.238 344.656 129.79 344.497 129.407 344.18C129.034 343.863 128.744 343.415 128.539 342.836C128.334 342.248 128.231 341.562 128.231 340.778C128.231 339.583 128.455 338.641 128.903 337.95C129.36 337.25 129.972 336.9 130.737 336.9C131.26 336.9 131.708 337.059 132.081 337.376C132.454 337.693 132.744 338.141 132.949 338.72C133.154 339.299 133.257 339.985 133.257 340.778C133.257 341.963 133.033 342.906 132.585 343.606C132.137 344.306 131.526 344.656 130.751 344.656Z" fill="#1A202C"/>
<rect x="204" y="337" width="16" height="16" rx="8" fill="#DB2719" fill-opacity="0.3"/>
<circle cx="212" cy="345" r="4" fill="#DB2719"/>
<path d="M233.268 350.144C233.916 350.144 234.52 350.028 235.08 349.796C235.64 349.564 236.128 349.24 236.544 348.824C236.96 348.408 237.284 347.92 237.516 347.36C237.756 346.8 237.876 346.188 237.876 345.524C237.876 344.86 237.76 344.248 237.528 343.688C237.296 343.128 236.968 342.64 236.544 342.224C236.128 341.808 235.64 341.488 235.08 341.264C234.52 341.032 233.916 340.916 233.268 340.916C232.62 340.916 232.016 341.032 231.456 341.264C230.896 341.488 230.408 341.808 229.992 342.224C229.576 342.632 229.248 343.12 229.008 343.688C228.776 344.248 228.66 344.86 228.66 345.524C228.66 346.188 228.776 346.804 229.008 347.372C229.248 347.932 229.576 348.42 229.992 348.836C230.408 349.252 230.896 349.576 231.456 349.808C232.016 350.032 232.62 350.144 233.268 350.144ZM233.268 348.848C232.652 348.848 232.104 348.704 231.624 348.416C231.144 348.12 230.764 347.72 230.484 347.216C230.212 346.712 230.076 346.148 230.076 345.524C230.076 344.892 230.212 344.328 230.484 343.832C230.764 343.328 231.144 342.932 231.624 342.644C232.104 342.348 232.652 342.2 233.268 342.2C233.892 342.2 234.444 342.348 234.924 342.644C235.404 342.932 235.78 343.328 236.052 343.832C236.332 344.328 236.472 344.892 236.472 345.524C236.472 346.148 236.332 346.712 236.052 347.216C235.78 347.72 235.4 348.12 234.912 348.416C234.432 348.704 233.884 348.848 233.268 348.848ZM239.087 350H240.443V346.172C240.443 345.692 240.579 345.316 240.851 345.044C241.123 344.764 241.467 344.624 241.883 344.624C242.307 344.624 242.651 344.764 242.915 345.044C243.187 345.316 243.323 345.692 243.323 346.172V350H244.667V345.8C244.667 345.32 244.559 344.9 244.343 344.54C244.135 344.172 243.847 343.884 243.479 343.676C243.111 343.468 242.691 343.364 242.219 343.364C241.819 343.364 241.459 343.444 241.139 343.604C240.819 343.764 240.567 343.996 240.383 344.3V343.508H239.087V350ZM247.868 350H249.284V346.256H253.424V350H254.828V341.06H253.424V344.996H249.284V341.06H247.868V350ZM259.441 350.144C260.065 350.144 260.633 350 261.145 349.712C261.657 349.416 262.065 349.012 262.369 348.5C262.673 347.988 262.825 347.404 262.825 346.748C262.825 346.092 262.673 345.512 262.369 345.008C262.073 344.496 261.669 344.096 261.157 343.808C260.645 343.512 260.073 343.364 259.441 343.364C258.809 343.364 258.233 343.512 257.713 343.808C257.201 344.096 256.793 344.496 256.489 345.008C256.193 345.512 256.045 346.092 256.045 346.748C256.045 347.396 256.197 347.976 256.501 348.488C256.805 349 257.213 349.404 257.725 349.7C258.245 349.996 258.817 350.144 259.441 350.144ZM259.441 348.884C259.065 348.884 258.725 348.792 258.421 348.608C258.125 348.424 257.889 348.172 257.713 347.852C257.545 347.524 257.461 347.156 257.461 346.748C257.461 346.34 257.545 345.976 257.713 345.656C257.889 345.336 258.125 345.084 258.421 344.9C258.725 344.716 259.065 344.624 259.441 344.624C259.817 344.624 260.153 344.716 260.449 344.9C260.753 345.084 260.989 345.336 261.157 345.656C261.333 345.976 261.421 346.34 261.421 346.748C261.421 347.156 261.333 347.524 261.157 347.852C260.989 348.172 260.753 348.424 260.449 348.608C260.153 348.792 259.817 348.884 259.441 348.884ZM263.908 350H265.264V340.916H263.908V350ZM269.61 350.144C270.058 350.144 270.47 350.06 270.846 349.892C271.23 349.724 271.542 349.48 271.782 349.16V350H273.066V340.916H271.722V344.264C271.482 343.984 271.178 343.764 270.81 343.604C270.45 343.444 270.046 343.364 269.598 343.364C268.982 343.364 268.426 343.512 267.93 343.808C267.442 344.104 267.054 344.508 266.766 345.02C266.486 345.532 266.346 346.108 266.346 346.748C266.346 347.388 266.486 347.964 266.766 348.476C267.054 348.988 267.442 349.396 267.93 349.7C268.426 349.996 268.986 350.144 269.61 350.144ZM269.742 348.884C269.358 348.884 269.014 348.792 268.71 348.608C268.414 348.424 268.182 348.172 268.014 347.852C267.846 347.524 267.762 347.156 267.762 346.748C267.762 346.34 267.846 345.976 268.014 345.656C268.19 345.336 268.426 345.084 268.722 344.9C269.026 344.716 269.366 344.624 269.742 344.624C270.118 344.624 270.454 344.716 270.75 344.9C271.054 345.084 271.29 345.336 271.458 345.656C271.634 345.976 271.722 346.34 271.722 346.748C271.722 347.156 271.634 347.524 271.458 347.852C271.29 348.172 271.054 348.424 270.75 348.608C270.454 348.792 270.118 348.884 269.742 348.884Z" fill="#1A202C"/>
<path d="M-364 372H301" stroke="#F3F5F7"/>
<rect x="165.5" y="77.5" width="151" height="33" rx="5.5" stroke="#C3D4E9"/>
<path d="M187 86.5V88.75" stroke="#292D32" stroke-width="1.5" stroke-miterlimit="10" stroke-linecap="round" stroke-linejoin="round"/>
<path d="M193 86.5V88.75" stroke="#292D32" stroke-width="1.5" stroke-miterlimit="10" stroke-linecap="round" stroke-linejoin="round"/>
<path d="M183.625 91.8174H196.375" stroke="#292D32" stroke-width="1.5" stroke-miterlimit="10" stroke-linecap="round" stroke-linejoin="round"/>
<path d="M196.75 91.375V97.75C196.75 100 195.625 101.5 193 101.5H187C184.375 101.5 183.25 100 183.25 97.75V91.375C183.25 89.125 184.375 87.625 187 87.625H193C195.625 87.625 196.75 89.125 196.75 91.375Z" stroke="#292D32" stroke-width="1.5" stroke-miterlimit="10" stroke-linecap="round" stroke-linejoin="round"/>
<path d="M192.771 95.2749H192.778" stroke="#292D32" stroke-width="2" stroke-linecap="round" stroke-linejoin="round"/>
<path d="M192.771 97.5249H192.778" stroke="#292D32" stroke-width="2" stroke-linecap="round" stroke-linejoin="round"/>
<path d="M189.997 95.2749H190.003" stroke="#292D32" stroke-width="2" stroke-linecap="round" stroke-linejoin="round"/>
<path d="M189.997 97.5249H190.003" stroke="#292D32" stroke-width="2" stroke-linecap="round" stroke-linejoin="round"/>
<path d="M187.221 95.2749H187.227" stroke="#292D32" stroke-width="2" stroke-linecap="round" stroke-linejoin="round"/>
<path d="M187.221 97.5249H187.227" stroke="#292D32" stroke-width="2" stroke-linecap="round" stroke-linejoin="round"/>
<path d="M209.112 98.5H210.516V89.56H207.396V90.76H209.112V98.5ZM213.845 98.5H214.361C214.921 98.5 215.401 98.392 215.801 98.176C216.209 97.952 216.525 97.64 216.749 97.24C216.973 96.832 217.085 96.36 217.085 95.824V89.56H215.681V95.872C215.681 96.264 215.561 96.58 215.321 96.82C215.081 97.06 214.761 97.18 214.361 97.18H213.845V98.5ZM220.489 98.644C220.937 98.644 221.341 98.568 221.701 98.416C222.061 98.256 222.361 98.032 222.601 97.744V98.5H223.897V94.132C223.897 93.684 223.785 93.292 223.561 92.956C223.337 92.612 223.029 92.344 222.637 92.152C222.245 91.96 221.793 91.864 221.281 91.864C220.873 91.864 220.485 91.936 220.117 92.08C219.757 92.216 219.441 92.404 219.169 92.644C218.905 92.884 218.709 93.164 218.581 93.484L219.709 94.048C219.837 93.744 220.033 93.5 220.297 93.316C220.569 93.132 220.885 93.04 221.245 93.04C221.637 93.04 221.949 93.144 222.181 93.352C222.421 93.552 222.541 93.812 222.541 94.132V94.384L220.477 94.72C219.725 94.848 219.169 95.096 218.809 95.464C218.457 95.824 218.281 96.264 218.281 96.784C218.281 97.344 218.485 97.796 218.893 98.14C219.301 98.476 219.833 98.644 220.489 98.644ZM219.697 96.736C219.697 96.48 219.781 96.268 219.949 96.1C220.117 95.932 220.381 95.82 220.741 95.764L222.541 95.452V95.8C222.541 96.128 222.461 96.428 222.301 96.7C222.149 96.972 221.937 97.188 221.665 97.348C221.393 97.5 221.073 97.576 220.705 97.576C220.409 97.576 220.165 97.5 219.973 97.348C219.789 97.188 219.697 96.984 219.697 96.736ZM225.242 98.5H226.598V94.672C226.598 94.192 226.734 93.816 227.006 93.544C227.278 93.264 227.622 93.124 228.038 93.124C228.462 93.124 228.806 93.264 229.07 93.544C229.342 93.816 229.478 94.192 229.478 94.672V98.5H230.822V94.3C230.822 93.82 230.714 93.4 230.498 93.04C230.29 92.672 230.002 92.384 229.634 92.176C229.266 91.968 228.846 91.864 228.374 91.864C227.974 91.864 227.614 91.944 227.294 92.104C226.974 92.264 226.722 92.496 226.538 92.8V92.008H225.242V98.5ZM234.095 95.848H238.895V94.648H234.095V95.848ZM243.626 98.5H245.03V89.56H241.91V90.76H243.626V98.5ZM248.754 98.5H250.17V94.768H254.094V93.508H250.17V90.82H254.574V89.56H248.754V98.5ZM258.263 98.644C258.927 98.644 259.503 98.492 259.991 98.188C260.487 97.884 260.835 97.5 261.035 97.036L259.931 96.496C259.771 96.768 259.551 96.996 259.271 97.18C258.999 97.356 258.667 97.444 258.275 97.444C257.763 97.444 257.327 97.284 256.967 96.964C256.607 96.636 256.407 96.196 256.367 95.644H261.191C261.215 95.548 261.231 95.444 261.239 95.332C261.247 95.22 261.251 95.112 261.251 95.008C261.251 94.448 261.127 93.932 260.879 93.46C260.639 92.98 260.287 92.596 259.823 92.308C259.367 92.012 258.811 91.864 258.155 91.864C257.547 91.864 256.999 92.012 256.511 92.308C256.031 92.596 255.651 92.996 255.371 93.508C255.091 94.012 254.951 94.588 254.951 95.236C254.951 95.876 255.091 96.456 255.371 96.976C255.659 97.488 256.051 97.896 256.547 98.2C257.043 98.496 257.615 98.644 258.263 98.644ZM258.155 93.004C258.611 93.004 258.995 93.148 259.307 93.436C259.619 93.724 259.787 94.1 259.811 94.564H256.391C256.471 94.068 256.675 93.684 257.003 93.412C257.331 93.14 257.715 93.004 258.155 93.004ZM265.802 98.644C266.426 98.644 266.982 98.496 267.47 98.2C267.958 97.896 268.342 97.488 268.622 96.976C268.91 96.464 269.054 95.888 269.054 95.248C269.054 94.608 268.91 94.032 268.622 93.52C268.342 93.008 267.954 92.604 267.458 92.308C266.97 92.012 266.418 91.864 265.802 91.864C265.354 91.864 264.95 91.944 264.59 92.104C264.23 92.256 263.93 92.472 263.69 92.752V89.416H262.334V98.5H263.63V97.672C263.87 97.984 264.178 98.224 264.554 98.392C264.938 98.56 265.354 98.644 265.802 98.644ZM265.67 97.384C265.294 97.384 264.954 97.292 264.65 97.108C264.354 96.924 264.118 96.672 263.942 96.352C263.774 96.024 263.69 95.656 263.69 95.248C263.69 94.84 263.774 94.476 263.942 94.156C264.118 93.836 264.354 93.584 264.65 93.4C264.954 93.216 265.294 93.124 265.67 93.124C266.054 93.124 266.394 93.216 266.69 93.4C266.986 93.584 267.218 93.836 267.386 94.156C267.562 94.476 267.65 94.84 267.65 95.248C267.65 95.656 267.562 96.024 267.386 96.352C267.218 96.672 266.986 96.924 266.69 97.108C266.394 97.292 266.054 97.384 265.67 97.384ZM271.799 98.5H277.739V97.3H273.671L275.831 94.996C276.423 94.356 276.859 93.808 277.139 93.352C277.427 92.888 277.571 92.412 277.571 91.924C277.571 91.428 277.451 90.992 277.211 90.616C276.979 90.24 276.651 89.948 276.227 89.74C275.803 89.524 275.307 89.416 274.739 89.416C274.251 89.416 273.799 89.512 273.383 89.704C272.967 89.896 272.615 90.168 272.327 90.52C272.039 90.864 271.843 91.272 271.739 91.744L272.987 92.104C273.107 91.64 273.323 91.288 273.635 91.048C273.947 90.8 274.319 90.676 274.751 90.676C275.175 90.676 275.515 90.796 275.771 91.036C276.035 91.276 276.167 91.608 276.167 92.032C276.167 92.296 276.107 92.548 275.987 92.788C275.867 93.028 275.667 93.308 275.387 93.628C275.107 93.94 274.727 94.352 274.247 94.864L271.799 97.48V98.5ZM282.438 98.644C283.15 98.644 283.77 98.452 284.298 98.068C284.834 97.676 285.25 97.136 285.546 96.448C285.842 95.752 285.99 94.944 285.99 94.024C285.99 93.104 285.842 92.3 285.546 91.612C285.25 90.916 284.834 90.376 284.298 89.992C283.762 89.608 283.138 89.416 282.426 89.416C281.722 89.416 281.102 89.608 280.566 89.992C280.03 90.376 279.61 90.912 279.306 91.6C279.01 92.288 278.862 93.096 278.862 94.024C278.862 94.944 279.01 95.752 279.306 96.448C279.61 97.136 280.03 97.676 280.566 98.068C281.11 98.452 281.734 98.644 282.438 98.644ZM282.438 97.348C281.998 97.348 281.614 97.212 281.286 96.94C280.966 96.668 280.718 96.284 280.542 95.788C280.366 95.284 280.278 94.696 280.278 94.024C280.278 93 280.47 92.192 280.854 91.6C281.246 91 281.77 90.7 282.426 90.7C282.874 90.7 283.258 90.836 283.578 91.108C283.898 91.38 284.146 91.764 284.322 92.26C284.498 92.756 284.586 93.344 284.586 94.024C284.586 95.04 284.394 95.848 284.01 96.448C283.626 97.048 283.102 97.348 282.438 97.348ZM287.08 98.5H293.02V97.3H288.952L291.112 94.996C291.704 94.356 292.14 93.808 292.42 93.352C292.708 92.888 292.852 92.412 292.852 91.924C292.852 91.428 292.732 90.992 292.492 90.616C292.26 90.24 291.932 89.948 291.508 89.74C291.084 89.524 290.588 89.416 290.02 89.416C289.532 89.416 289.08 89.512 288.664 89.704C288.248 89.896 287.896 90.168 287.608 90.52C287.32 90.864 287.124 91.272 287.02 91.744L288.268 92.104C288.388 91.64 288.604 91.288 288.916 91.048C289.228 90.8 289.6 90.676 290.032 90.676C290.456 90.676 290.796 90.796 291.052 91.036C291.316 91.276 291.448 91.608 291.448 92.032C291.448 92.296 291.388 92.548 291.268 92.788C291.148 93.028 290.948 93.308 290.668 93.628C290.388 93.94 290.008 94.352 289.528 94.864L287.08 97.48V98.5ZM294.012 98.5H299.952V97.3H295.884L298.044 94.996C298.636 94.356 299.072 93.808 299.352 93.352C299.64 92.888 299.784 92.412 299.784 91.924C299.784 91.428 299.664 90.992 299.424 90.616C299.192 90.24 298.864 89.948 298.44 89.74C298.016 89.524 297.52 89.416 296.952 89.416C296.464 89.416 296.012 89.512 295.596 89.704C295.18 89.896 294.828 90.168 294.54 90.52C294.252 90.864 294.056 91.272 293.952 91.744L295.2 92.104C295.32 91.64 295.536 91.288 295.848 91.048C296.16 90.8 296.532 90.676 296.964 90.676C297.388 90.676 297.728 90.796 297.984 91.036C298.248 91.276 298.38 91.608 298.38 92.032C298.38 92.296 298.32 92.548 298.2 92.788C298.08 93.028 297.88 93.308 297.6 93.628C297.32 93.94 296.94 94.352 296.46 94.864L294.012 97.48V98.5Z" fill="#1A202C"/>
</g>
<defs>
<clipPath id="clip0_117_6246">
<rect width="384" height="384" rx="12" fill="white"/>
</clipPath>
<clipPath id="clip1_117_6246">
<rect width="649" height="36" fill="white" transform="translate(-356 194)"/>
</clipPath>
</defs>
</svg>
