<svg width="235" height="235" viewBox="0 0 235 235" fill="none" xmlns="http://www.w3.org/2000/svg">
<g clip-path="url(#clip0_164_19477)">
<rect width="235" height="235" rx="18.8445" fill="#F3F5F7"/>
<path d="M37.6891 51.8223C37.6891 44.0167 44.0168 37.689 51.8224 37.689H235.556V235.556H37.6891V51.8223Z" fill="white"/>
<path d="M70.9446 81.1252C71.7173 81.1252 72.3909 80.965 72.9657 80.6446C73.5499 80.3243 74.0069 79.8861 74.3366 79.3302C74.6664 78.7649 74.8313 78.1242 74.8313 77.4081V70.4262H73.4321V77.3798C73.4321 77.8604 73.3237 78.2891 73.107 78.666C72.8997 79.0334 72.6077 79.3208 72.2308 79.5281C71.8633 79.7354 71.4346 79.839 70.9446 79.839C70.4547 79.839 70.0213 79.7354 69.6444 79.5281C69.2769 79.3208 68.9848 79.0334 68.7681 78.666C68.5608 78.2891 68.4572 77.8604 68.4572 77.3798V70.4262H67.058V77.4081C67.058 78.1242 67.2229 78.7649 67.5526 79.3302C67.8824 79.8861 68.3394 80.3243 68.9236 80.6446C69.5077 80.965 70.1814 81.1252 70.9446 81.1252ZM79.3971 81.1252C79.9436 81.1252 80.4242 81.0309 80.8387 80.8425C81.2533 80.6541 81.5784 80.3949 81.8139 80.0652C82.0495 79.726 82.1673 79.3397 82.1673 78.9062C82.1673 78.3786 81.993 77.9263 81.6443 77.5494C81.2957 77.1725 80.8152 76.8946 80.2027 76.7156L78.959 76.3481C78.8083 76.301 78.6528 76.2445 78.4926 76.1785C78.3324 76.1031 78.1958 75.9995 78.0827 75.8676C77.9697 75.7262 77.9131 75.5472 77.9131 75.3305C77.9131 75.029 78.0262 74.784 78.2523 74.5956C78.4879 74.4071 78.7941 74.3129 79.171 74.3129C79.5856 74.3129 79.9625 74.4307 80.3017 74.6662C80.6503 74.8924 80.9094 75.2033 81.079 75.599L82.1531 75.1044C81.927 74.4919 81.5454 74.0161 81.0083 73.6769C80.4807 73.3377 79.8824 73.1681 79.2134 73.1681C78.714 73.1681 78.2618 73.2623 77.8566 73.4508C77.4609 73.6392 77.1452 73.903 76.9097 74.2422C76.6835 74.572 76.5705 74.963 76.5705 75.4153C76.5705 75.9053 76.7259 76.3387 77.0369 76.7156C77.3572 77.083 77.8613 77.361 78.5491 77.5494L79.6939 77.8745C79.8541 77.9122 80.019 77.9734 80.1886 78.0582C80.3676 78.1336 80.5184 78.242 80.6409 78.3833C80.7728 78.5152 80.8387 78.6942 80.8387 78.9204C80.8387 79.2407 80.7021 79.4998 80.4289 79.6977C80.1556 79.8956 79.8117 79.9945 79.3971 79.9945C78.9355 79.9945 78.5162 79.8673 78.1393 79.6129C77.7624 79.3491 77.4656 78.9863 77.2489 78.5246L76.203 79.0334C76.4386 79.6741 76.839 80.1829 77.4043 80.5598C77.9697 80.9367 78.6339 81.1252 79.3971 81.1252ZM87.1103 81.1252C87.8924 81.1252 88.5708 80.9414 89.1455 80.574C89.7203 80.2065 90.1254 79.7589 90.361 79.2313L89.2586 78.666C89.0419 79.0334 88.7592 79.3349 88.4106 79.5705C88.062 79.8061 87.6332 79.9238 87.1244 79.9238C86.7004 79.9238 86.3047 79.8296 85.9372 79.6412C85.5792 79.4433 85.2824 79.1653 85.0468 78.8073C84.8207 78.4493 84.6982 78.0253 84.6794 77.5353H90.5023C90.5494 77.2809 90.573 77.0453 90.573 76.8286C90.573 76.1973 90.4316 75.6037 90.149 75.0478C89.8663 74.4919 89.4564 74.0397 88.9194 73.691C88.3917 73.3424 87.751 73.1681 86.9972 73.1681C86.2906 73.1681 85.6593 73.3377 85.1034 73.6769C84.5475 74.0161 84.1046 74.4872 83.7748 75.0902C83.4545 75.6838 83.2943 76.3622 83.2943 77.1254C83.2943 77.8886 83.4592 78.5717 83.789 79.1748C84.1187 79.7778 84.571 80.2536 85.1458 80.6022C85.7205 80.9509 86.3754 81.1252 87.1103 81.1252ZM86.9972 74.3412C87.3836 74.3412 87.7369 74.4307 88.0572 74.6097C88.3776 74.7793 88.6367 75.0196 88.8346 75.3305C89.0324 75.6414 89.1361 75.9995 89.1455 76.4046H84.7076C84.8019 75.7639 85.0657 75.2598 85.4991 74.8924C85.9325 74.5249 86.4319 74.3412 86.9972 74.3412ZM92.0041 80.9556H93.3185V76.4188C93.3185 75.8063 93.4834 75.3352 93.8132 75.0054C94.1429 74.6662 94.5764 74.4966 95.1134 74.4966H95.7777V73.2529H95.3113C94.8402 73.2529 94.435 73.3377 94.0958 73.5073C93.7566 73.6675 93.4881 73.9125 93.2902 74.2422V73.3377H92.0041V80.9556ZM96.6626 80.9556H97.977V76.447C97.977 75.8252 98.1513 75.3352 98.4999 74.9772C98.8485 74.6191 99.2914 74.4401 99.8284 74.4401C100.366 74.4401 100.804 74.6191 101.143 74.9772C101.482 75.3258 101.652 75.8157 101.652 76.447V80.9556H102.98V76.023C102.98 75.4765 102.853 74.9913 102.599 74.5673C102.354 74.1339 102.014 73.7947 101.581 73.5497C101.157 73.2953 100.672 73.1681 100.125 73.1681C99.6541 73.1681 99.2301 73.267 98.8532 73.4649C98.4763 73.6533 98.1748 73.9219 97.9487 74.2705V73.3377H96.6626V80.9556ZM106.811 81.1252C107.367 81.1252 107.867 81.0215 108.31 80.8142C108.752 80.5975 109.11 80.3149 109.384 79.9662V80.9556H110.67V75.7828C110.67 75.2645 110.543 74.8123 110.288 74.426C110.043 74.0302 109.699 73.724 109.256 73.5073C108.814 73.2812 108.3 73.1681 107.716 73.1681C107.264 73.1681 106.83 73.2482 106.416 73.4084C106.001 73.5685 105.638 73.79 105.327 74.0726C105.016 74.3459 104.79 74.6568 104.649 75.0054L105.794 75.599C105.954 75.241 106.199 74.9489 106.529 74.7228C106.859 74.4966 107.245 74.3836 107.688 74.3836C108.187 74.3836 108.587 74.5155 108.889 74.7793C109.2 75.0337 109.355 75.3682 109.355 75.7828V76.1361L106.755 76.5601C105.897 76.7014 105.266 76.9888 104.861 77.4222C104.465 77.8462 104.267 78.3597 104.267 78.9628C104.267 79.6035 104.503 80.1264 104.974 80.5316C105.455 80.9273 106.067 81.1252 106.811 81.1252ZM105.652 78.9204C105.652 78.5906 105.761 78.3126 105.978 78.0865C106.204 77.8604 106.562 77.7049 107.052 77.6201L109.355 77.2385V77.719C109.355 78.143 109.256 78.5293 109.059 78.878C108.861 79.2266 108.583 79.5045 108.225 79.7118C107.867 79.9097 107.447 80.0086 106.967 80.0086C106.59 80.0086 106.274 79.905 106.02 79.6977C105.775 79.4904 105.652 79.2313 105.652 78.9204ZM112.425 80.9556H113.74V76.447C113.74 75.8252 113.909 75.3352 114.248 74.9772C114.588 74.6191 115.012 74.4401 115.52 74.4401C116.039 74.4401 116.458 74.6191 116.778 74.9772C117.108 75.3258 117.273 75.8157 117.273 76.447V80.9556H118.601V76.447C118.601 75.8252 118.766 75.3352 119.096 74.9772C119.435 74.6191 119.864 74.4401 120.382 74.4401C120.891 74.4401 121.31 74.6191 121.64 74.9772C121.97 75.3258 122.135 75.8157 122.135 76.447V80.9556H123.463V76.023C123.463 75.4765 123.336 74.9913 123.082 74.5673C122.827 74.1339 122.483 73.7947 122.05 73.5497C121.626 73.2953 121.15 73.1681 120.622 73.1681C120.114 73.1681 119.647 73.2859 119.223 73.5214C118.809 73.757 118.479 74.1009 118.234 74.5532C118.008 74.1292 117.678 73.7947 117.245 73.5497C116.821 73.2953 116.349 73.1681 115.831 73.1681C115.379 73.1681 114.964 73.267 114.588 73.4649C114.22 73.6533 113.928 73.9266 113.711 74.2846V73.3377H112.425V80.9556ZM128.552 81.1252C129.335 81.1252 130.013 80.9414 130.588 80.574C131.162 80.2065 131.568 79.7589 131.803 79.2313L130.701 78.666C130.484 79.0334 130.201 79.3349 129.853 79.5705C129.504 79.8061 129.075 79.9238 128.567 79.9238C128.143 79.9238 127.747 79.8296 127.379 79.6412C127.021 79.4433 126.725 79.1653 126.489 78.8073C126.263 78.4493 126.14 78.0253 126.122 77.5353H131.944C131.992 77.2809 132.015 77.0453 132.015 76.8286C132.015 76.1973 131.874 75.6037 131.591 75.0478C131.308 74.4919 130.899 74.0397 130.362 73.691C129.834 73.3424 129.193 73.1681 128.439 73.1681C127.733 73.1681 127.101 73.3377 126.546 73.6769C125.99 74.0161 125.547 74.4872 125.217 75.0902C124.897 75.6838 124.736 76.3622 124.736 77.1254C124.736 77.8886 124.901 78.5717 125.231 79.1748C125.561 79.7778 126.013 80.2536 126.588 80.6022C127.163 80.9509 127.818 81.1252 128.552 81.1252ZM128.439 74.3412C128.826 74.3412 129.179 74.4307 129.499 74.6097C129.82 74.7793 130.079 75.0196 130.277 75.3305C130.475 75.6414 130.578 75.9995 130.588 76.4046H126.15C126.244 75.7639 126.508 75.2598 126.941 74.8924C127.375 74.5249 127.874 74.3412 128.439 74.3412Z" fill="#1A202C"/>
<rect x="65.9556" y="93.0444" width="169.6" height="35.3334" rx="2.35556" fill="#F3F5F7"/>
<path d="M81.3328 120.398C81.8322 120.398 82.2562 120.295 82.6048 120.087C82.9535 119.889 83.2408 119.626 83.467 119.296C83.7025 118.966 83.8957 118.617 84.0464 118.25L87.5091 109.713H86.336L83.8627 115.96L81.3894 109.713H80.2446L83.2691 117.289L83.0006 117.939C82.765 118.485 82.5248 118.853 82.2798 119.041C82.0348 119.239 81.6815 119.338 81.2198 119.338C81.069 119.338 80.9183 119.324 80.7675 119.296C80.6262 119.277 80.5084 119.263 80.4142 119.253V120.243C80.5649 120.299 80.7157 120.337 80.8664 120.356C81.0266 120.384 81.1821 120.398 81.3328 120.398ZM92.0228 117.458C92.7295 117.458 93.3702 117.289 93.945 116.95C94.5292 116.61 94.9956 116.144 95.3442 115.55C95.6928 114.947 95.8671 114.26 95.8671 113.487C95.8671 112.724 95.6975 112.045 95.3583 111.452C95.0285 110.858 94.5716 110.392 93.9874 110.053C93.4126 109.713 92.7578 109.544 92.0228 109.544C91.2879 109.544 90.6284 109.718 90.0442 110.067C89.4694 110.406 89.0124 110.872 88.6732 111.466C88.334 112.059 88.1644 112.733 88.1644 113.487C88.1644 114.25 88.334 114.933 88.6732 115.536C89.0219 116.13 89.4883 116.601 90.0724 116.95C90.6566 117.289 91.3068 117.458 92.0228 117.458ZM92.0228 116.398C91.514 116.398 91.0524 116.271 90.6378 116.017C90.2326 115.762 89.9075 115.414 89.6626 114.971C89.4176 114.528 89.2951 114.033 89.2951 113.487C89.2951 112.94 89.4176 112.451 89.6626 112.017C89.9075 111.584 90.2326 111.24 90.6378 110.985C91.0524 110.731 91.514 110.604 92.0228 110.604C92.5316 110.604 92.9886 110.731 93.3938 110.985C93.8084 111.24 94.1334 111.584 94.369 112.017C94.614 112.451 94.7364 112.94 94.7364 113.487C94.7364 114.033 94.614 114.528 94.369 114.971C94.1334 115.414 93.8084 115.762 93.3938 116.017C92.9886 116.271 92.5316 116.398 92.0228 116.398ZM100.281 117.458C100.752 117.458 101.176 117.359 101.553 117.162C101.929 116.964 102.231 116.695 102.457 116.356V117.289H103.517V109.713H102.457V114.222C102.457 114.9 102.269 115.433 101.892 115.819C101.524 116.205 101.048 116.398 100.464 116.398C99.8896 116.398 99.4184 116.215 99.051 115.847C98.6835 115.47 98.4998 114.976 98.4998 114.363V109.713H97.4398V114.49C97.4398 115.075 97.5623 115.593 97.8072 116.045C98.0616 116.488 98.4056 116.837 98.839 117.091C99.2724 117.336 99.7529 117.458 100.281 117.458ZM105.556 117.289H106.616V112.625C106.616 112.003 106.781 111.522 107.11 111.183C107.44 110.844 107.878 110.674 108.425 110.674H109.089V109.614H108.609C108.147 109.614 107.746 109.695 107.407 109.855C107.077 110.015 106.814 110.241 106.616 110.533V109.713H105.556V117.289ZM110.148 118.278H116.508V117.289H110.148V118.278ZM121.181 117.458C121.652 117.458 122.076 117.359 122.453 117.162C122.83 116.964 123.131 116.695 123.357 116.356V117.289H124.417V109.713H123.357V114.222C123.357 114.9 123.169 115.433 122.792 115.819C122.425 116.205 121.949 116.398 121.365 116.398C120.79 116.398 120.319 116.215 119.951 115.847C119.584 115.47 119.4 114.976 119.4 114.363V109.713H118.34V114.49C118.34 115.075 118.462 115.593 118.707 116.045C118.962 116.488 119.306 116.837 119.739 117.091C120.173 117.336 120.653 117.458 121.181 117.458ZM129.085 117.458C129.612 117.458 130.079 117.369 130.484 117.19C130.889 117.001 131.205 116.742 131.431 116.413C131.666 116.083 131.784 115.711 131.784 115.296C131.784 114.787 131.61 114.344 131.261 113.967C130.922 113.591 130.446 113.313 129.834 113.134L128.576 112.766C128.444 112.728 128.289 112.672 128.11 112.597C127.94 112.521 127.789 112.408 127.657 112.257C127.525 112.107 127.459 111.904 127.459 111.65C127.459 111.32 127.587 111.047 127.841 110.83C128.095 110.613 128.435 110.505 128.859 110.505C129.292 110.505 129.683 110.627 130.032 110.872C130.39 111.108 130.663 111.438 130.851 111.862L131.756 111.438C131.539 110.844 131.167 110.382 130.639 110.053C130.121 109.713 129.542 109.544 128.901 109.544C128.43 109.544 128.001 109.633 127.615 109.812C127.229 109.991 126.922 110.246 126.696 110.575C126.47 110.905 126.357 111.292 126.357 111.734C126.357 112.206 126.512 112.62 126.823 112.978C127.134 113.336 127.638 113.614 128.336 113.812L129.424 114.123C129.575 114.161 129.749 114.222 129.947 114.307C130.145 114.391 130.319 114.514 130.47 114.674C130.621 114.825 130.696 115.032 130.696 115.296C130.696 115.654 130.54 115.946 130.23 116.172C129.919 116.389 129.537 116.497 129.085 116.497C128.614 116.497 128.18 116.361 127.784 116.087C127.398 115.814 127.097 115.447 126.88 114.985L125.99 115.409C126.235 116.04 126.63 116.54 127.177 116.907C127.723 117.275 128.359 117.458 129.085 117.458ZM136.954 117.458C137.472 117.458 137.943 117.374 138.367 117.204C138.801 117.025 139.173 116.794 139.484 116.511C139.795 116.219 140.026 115.904 140.176 115.565L139.272 115.084C139.036 115.48 138.73 115.81 138.353 116.073C137.976 116.337 137.51 116.469 136.954 116.469C136.502 116.469 136.078 116.361 135.682 116.144C135.286 115.927 134.961 115.626 134.707 115.239C134.462 114.844 134.33 114.373 134.311 113.826H140.275C140.294 113.704 140.308 113.586 140.318 113.473C140.327 113.35 140.332 113.242 140.332 113.148C140.332 112.695 140.252 112.257 140.092 111.833C139.931 111.4 139.701 111.014 139.399 110.674C139.098 110.326 138.73 110.053 138.297 109.855C137.873 109.647 137.387 109.544 136.841 109.544C136.153 109.544 135.531 109.713 134.975 110.053C134.429 110.392 133.995 110.858 133.675 111.452C133.355 112.036 133.195 112.71 133.195 113.473C133.195 114.236 133.359 114.919 133.689 115.522C134.019 116.125 134.467 116.601 135.032 116.95C135.607 117.289 136.247 117.458 136.954 117.458ZM136.841 110.533C137.265 110.533 137.651 110.632 138 110.83C138.358 111.028 138.641 111.301 138.848 111.65C139.065 111.989 139.178 112.385 139.187 112.837H134.339C134.396 112.366 134.542 111.961 134.778 111.621C135.022 111.273 135.324 111.004 135.682 110.816C136.04 110.627 136.426 110.533 136.841 110.533ZM142.06 117.289H143.12V112.625C143.12 112.003 143.284 111.522 143.614 111.183C143.944 110.844 144.382 110.674 144.929 110.674H145.593V109.614H145.112C144.651 109.614 144.25 109.695 143.911 109.855C143.581 110.015 143.317 110.241 143.12 110.533V109.713H142.06V117.289Z" fill="#1A202C"/>
<path d="M147.599 119.974H148.73V105.346H147.599V119.974Z" fill="#1A202C"/>
<path d="M67.1286 157.511H68.5137V153.483H70.8457C71.5429 153.483 72.1554 153.351 72.683 153.087C73.2107 152.824 73.6205 152.447 73.9126 151.957C74.2141 151.467 74.3649 150.892 74.3649 150.233C74.3649 149.564 74.2141 148.989 73.9126 148.508C73.6205 148.018 73.2107 147.641 72.683 147.378C72.1554 147.114 71.5429 146.982 70.8457 146.982H67.1286V157.511ZM68.5137 152.211V148.254H70.8881C71.5194 148.254 72.0235 148.433 72.4004 148.791C72.7773 149.14 72.9657 149.62 72.9657 150.233C72.9657 150.836 72.7773 151.316 72.4004 151.674C72.0235 152.032 71.5194 152.211 70.8881 152.211H68.5137ZM77.4947 157.681C78.0506 157.681 78.55 157.577 78.9928 157.37C79.4356 157.153 79.7937 156.871 80.0669 156.522V157.511H81.3531V152.338C81.3531 151.82 81.2259 151.368 80.9715 150.982C80.7265 150.586 80.3826 150.28 79.9397 150.063C79.4969 149.837 78.9834 149.724 78.3992 149.724C77.9469 149.724 77.5135 149.804 77.0989 149.964C76.6844 150.124 76.3216 150.346 76.0107 150.628C75.6997 150.902 75.4736 151.212 75.3323 151.561L76.4771 152.155C76.6372 151.797 76.8822 151.505 77.212 151.278C77.5418 151.052 77.9281 150.939 78.3709 150.939C78.8703 150.939 79.2708 151.071 79.5723 151.335C79.8832 151.589 80.0387 151.924 80.0387 152.338V152.692L77.4381 153.116C76.5807 153.257 75.9494 153.544 75.5443 153.978C75.1485 154.402 74.9507 154.915 74.9507 155.518C74.9507 156.159 75.1862 156.682 75.6573 157.087C76.1379 157.483 76.7503 157.681 77.4947 157.681ZM76.3357 155.476C76.3357 155.146 76.4441 154.868 76.6608 154.642C76.8869 154.416 77.245 154.261 77.7349 154.176L80.0387 153.794V154.275C80.0387 154.699 79.9397 155.085 79.7419 155.434C79.544 155.782 79.266 156.06 78.908 156.267C78.55 156.465 78.1307 156.564 77.6501 156.564C77.2732 156.564 76.9576 156.461 76.7032 156.253C76.4582 156.046 76.3357 155.787 76.3357 155.476ZM85.8361 157.681C86.3826 157.681 86.8631 157.587 87.2777 157.398C87.6923 157.21 88.0173 156.951 88.2529 156.621C88.4885 156.282 88.6062 155.895 88.6062 155.462C88.6062 154.934 88.4319 154.482 88.0833 154.105C87.7347 153.728 87.2541 153.45 86.6417 153.271L85.398 152.904C85.2472 152.857 85.0917 152.8 84.9316 152.734C84.7714 152.659 84.6348 152.555 84.5217 152.423C84.4086 152.282 84.3521 152.103 84.3521 151.886C84.3521 151.585 84.4652 151.34 84.6913 151.151C84.9269 150.963 85.2331 150.869 85.61 150.869C86.0245 150.869 86.4014 150.986 86.7406 151.222C87.0893 151.448 87.3484 151.759 87.518 152.155L88.5921 151.66C88.366 151.048 87.9844 150.572 87.4473 150.233C86.9197 149.893 86.3213 149.724 85.6524 149.724C85.153 149.724 84.7007 149.818 84.2956 150.006C83.8998 150.195 83.5842 150.459 83.3486 150.798C83.1225 151.128 83.0094 151.519 83.0094 151.971C83.0094 152.461 83.1649 152.894 83.4758 153.271C83.7962 153.639 84.3003 153.917 84.9881 154.105L86.1329 154.43C86.2931 154.468 86.458 154.529 86.6276 154.614C86.8066 154.689 86.9573 154.798 87.0798 154.939C87.2117 155.071 87.2777 155.25 87.2777 155.476C87.2777 155.796 87.1411 156.055 86.8678 156.253C86.5946 156.451 86.2507 156.55 85.8361 156.55C85.3744 156.55 84.9551 156.423 84.5782 156.169C84.2013 155.905 83.9045 155.542 83.6878 155.08L82.642 155.589C82.8775 156.23 83.278 156.739 83.8433 157.115C84.4086 157.492 85.0729 157.681 85.8361 157.681ZM92.7719 157.681C93.3184 157.681 93.7989 157.587 94.2135 157.398C94.6281 157.21 94.9532 156.951 95.1887 156.621C95.4243 156.282 95.5421 155.895 95.5421 155.462C95.5421 154.934 95.3677 154.482 95.0191 154.105C94.6705 153.728 94.19 153.45 93.5775 153.271L92.3338 152.904C92.183 152.857 92.0276 152.8 91.8674 152.734C91.7072 152.659 91.5706 152.555 91.4575 152.423C91.3445 152.282 91.2879 152.103 91.2879 151.886C91.2879 151.585 91.401 151.34 91.6271 151.151C91.8627 150.963 92.1689 150.869 92.5458 150.869C92.9604 150.869 93.3373 150.986 93.6765 151.222C94.0251 151.448 94.2842 151.759 94.4538 152.155L95.5279 151.66C95.3018 151.048 94.9202 150.572 94.3831 150.233C93.8555 149.893 93.2572 149.724 92.5882 149.724C92.0888 149.724 91.6365 149.818 91.2314 150.006C90.8357 150.195 90.52 150.459 90.2845 150.798C90.0583 151.128 89.9453 151.519 89.9453 151.971C89.9453 152.461 90.1007 152.894 90.4117 153.271C90.732 153.639 91.2361 153.917 91.9239 154.105L93.0687 154.43C93.2289 154.468 93.3938 154.529 93.5634 154.614C93.7424 154.689 93.8932 154.798 94.0157 154.939C94.1476 155.071 94.2135 155.25 94.2135 155.476C94.2135 155.796 94.0769 156.055 93.8037 156.253C93.5304 156.451 93.1865 156.55 92.7719 156.55C92.3102 156.55 91.8909 156.423 91.5141 156.169C91.1372 155.905 90.8404 155.542 90.6237 155.08L89.5778 155.589C89.8133 156.23 90.2138 156.739 90.7791 157.115C91.3445 157.492 92.0087 157.681 92.7719 157.681ZM98.5945 157.511H99.8524L101.661 151.773L103.471 157.511H104.728L107.343 149.893H105.901L104.064 155.476L102.283 149.893H101.04L99.2588 155.476L97.4356 149.893H95.9799L98.5945 157.511ZM111.716 157.681C112.432 157.681 113.087 157.511 113.681 157.172C114.274 156.833 114.745 156.362 115.094 155.759C115.452 155.156 115.631 154.468 115.631 153.695C115.631 152.932 115.457 152.254 115.108 151.66C114.769 151.057 114.302 150.586 113.709 150.247C113.115 149.898 112.451 149.724 111.716 149.724C110.972 149.724 110.303 149.898 109.709 150.247C109.115 150.586 108.644 151.057 108.296 151.66C107.957 152.254 107.787 152.932 107.787 153.695C107.787 154.458 107.961 155.142 108.31 155.745C108.658 156.348 109.13 156.823 109.723 157.172C110.317 157.511 110.981 157.681 111.716 157.681ZM111.716 156.409C111.235 156.409 110.802 156.291 110.416 156.055C110.039 155.82 109.737 155.5 109.511 155.094C109.285 154.68 109.172 154.213 109.172 153.695C109.172 153.177 109.285 152.715 109.511 152.31C109.737 151.905 110.039 151.585 110.416 151.349C110.802 151.114 111.235 150.996 111.716 150.996C112.187 150.996 112.611 151.114 112.988 151.349C113.374 151.585 113.676 151.905 113.893 152.31C114.119 152.715 114.232 153.177 114.232 153.695C114.232 154.213 114.119 154.68 113.893 155.094C113.676 155.5 113.374 155.82 112.988 156.055C112.611 156.291 112.187 156.409 111.716 156.409ZM117.063 157.511H118.377V152.974C118.377 152.362 118.542 151.891 118.872 151.561C119.201 151.222 119.635 151.052 120.172 151.052H120.836V149.809H120.37C119.899 149.809 119.494 149.893 119.154 150.063C118.815 150.223 118.547 150.468 118.349 150.798V149.893H117.063V157.511ZM125.184 157.681C125.749 157.681 126.263 157.572 126.724 157.356C127.195 157.13 127.572 156.809 127.855 156.395V157.511H129.141V146.812H127.813V150.911C127.52 150.534 127.148 150.242 126.696 150.035C126.244 149.827 125.74 149.724 125.184 149.724C124.468 149.724 123.822 149.898 123.247 150.247C122.682 150.595 122.235 151.071 121.905 151.674C121.575 152.268 121.41 152.946 121.41 153.709C121.41 154.463 121.575 155.142 121.905 155.745C122.235 156.338 122.682 156.809 123.247 157.158C123.822 157.507 124.468 157.681 125.184 157.681ZM125.297 156.409C124.816 156.409 124.388 156.291 124.011 156.055C123.634 155.82 123.337 155.5 123.12 155.094C122.904 154.68 122.795 154.218 122.795 153.709C122.795 153.191 122.904 152.729 123.12 152.324C123.337 151.91 123.634 151.585 124.011 151.349C124.397 151.114 124.826 150.996 125.297 150.996C125.777 150.996 126.206 151.118 126.583 151.363C126.96 151.599 127.257 151.919 127.473 152.324C127.699 152.729 127.813 153.191 127.813 153.709C127.813 154.218 127.699 154.68 127.473 155.094C127.257 155.5 126.96 155.82 126.583 156.055C126.206 156.291 125.777 156.409 125.297 156.409Z" fill="#1A202C"/>
<rect x="65.9556" y="169.6" width="169.6" height="35.3334" rx="2.35556" fill="#F3F5F7"/>
<circle cx="83.0336" cy="187.856" r="2.94445" fill="#1A202C"/>
<circle cx="95.9889" cy="187.856" r="2.94445" fill="#1A202C"/>
<circle cx="108.945" cy="187.856" r="2.94445" fill="#1A202C"/>
<circle cx="121.9" cy="187.856" r="2.94445" fill="#1A202C"/>
<circle cx="134.856" cy="187.856" r="2.94445" fill="#1A202C"/>
<circle cx="147.811" cy="187.856" r="2.94445" fill="#1A202C"/>
<circle cx="160.767" cy="187.856" r="2.94445" fill="#1A202C"/>
<circle cx="173.723" cy="187.856" r="2.94445" fill="#1A202C"/>
<circle cx="186.678" cy="187.856" r="2.94445" fill="#1A202C"/>
</g>
<defs>
<clipPath id="clip0_164_19477">
<rect width="235" height="235" rx="18.8445" fill="white"/>
</clipPath>
</defs>
</svg>
