<svg width="235" height="235" viewBox="0 0 235 235" fill="none" xmlns="http://www.w3.org/2000/svg">
<rect width="235" height="235" rx="18.8" fill="#F3F5F7"/>
<path d="M37.6001 51.7001C37.6001 43.9129 43.9129 37.6001 51.7001 37.6001H235V216.2C235 226.583 226.583 235 216.2 235H37.6001V51.7001Z" fill="white"/>
<path d="M89.3 77.55C82.8258 77.55 77.55 82.8258 77.55 89.3C77.55 95.7743 82.8258 101.05 89.3 101.05C95.7743 101.05 101.05 95.7743 101.05 89.3C101.05 82.8258 95.7743 77.55 89.3 77.55ZM94.9165 86.5975L88.2543 93.2598C88.0898 93.4243 87.8665 93.5183 87.6315 93.5183C87.3965 93.5183 87.1733 93.4243 87.0088 93.2598L83.6835 89.9345C83.3428 89.5938 83.3428 89.0298 83.6835 88.689C84.0243 88.3483 84.5883 88.3483 84.929 88.689L87.6315 91.3915L93.671 85.352C94.0118 85.0113 94.5758 85.0113 94.9165 85.352C95.2573 85.6928 95.2573 86.245 94.9165 86.5975Z" fill="#9CD323"/>
<rect x="117.5" y="75.2" width="117.5" height="5.875" rx="2.9375" fill="#C3D4E9"/>
<rect x="117.5" y="95.175" width="117.5" height="5.875" rx="2.9375" fill="#C3D4E9"/>
<rect x="117.5" y="115.15" width="117.5" height="5.875" rx="2.9375" fill="#C3D4E9"/>
<path d="M89.3 151.575C82.8258 151.575 77.55 156.851 77.55 163.325C77.55 169.799 82.8258 175.075 89.3 175.075C95.7743 175.075 101.05 169.799 101.05 163.325C101.05 156.851 95.7743 151.575 89.3 151.575ZM94.9165 160.623L88.2543 167.285C88.0898 167.449 87.8665 167.543 87.6315 167.543C87.3965 167.543 87.1733 167.449 87.0088 167.285L83.6835 163.96C83.3428 163.619 83.3428 163.055 83.6835 162.714C84.0243 162.373 84.5883 162.373 84.929 162.714L87.6315 165.417L93.671 159.377C94.0118 159.036 94.5758 159.036 94.9165 159.377C95.2573 159.718 95.2573 160.27 94.9165 160.623Z" fill="#9CD323"/>
<rect x="117.5" y="149.225" width="117.5" height="5.875" rx="2.9375" fill="#C3D4E9"/>
<rect x="117.5" y="169.2" width="117.5" height="5.875" rx="2.9375" fill="#C3D4E9"/>
<rect x="117.5" y="189.175" width="117.5" height="5.875" rx="2.9375" fill="#C3D4E9"/>
</svg>
