<svg viewBox="0 0 21 28" fill="none" xmlns="http://www.w3.org/2000/svg">
<path d="M13.5386 21.4371C13.3904 21.5854 13.2144 21.703 13.0208 21.7833C12.8271 21.8635 12.6195 21.9048 12.4099 21.9048C12.2003 21.9048 11.9927 21.8635 11.799 21.7833C11.6053 21.703 11.4294 21.5854 11.2812 21.4371L2.09921 12.2566C0.774913 10.9053 0.0374108 9.08593 0.0469667 7.19391C0.0565226 5.30188 0.812364 3.49008 2.15024 2.1522C3.48812 0.814317 5.29993 0.0584758 7.19195 0.0489198C9.08398 0.0393639 10.9033 0.776866 12.2547 2.10116L18.0578 7.90427C18.3563 8.20439 18.5235 8.61083 18.5224 9.03418C18.5213 9.45752 18.3521 9.8631 18.052 10.1617C17.7518 10.4603 17.3454 10.6274 16.9221 10.6263C16.4987 10.6252 16.0931 10.456 15.7945 10.1559L9.99869 4.35277C9.24993 3.60401 8.23439 3.18336 7.17548 3.18336C6.11657 3.18336 5.10103 3.60401 4.35227 4.35277C3.6035 5.10153 3.18285 6.11707 3.18285 7.17598C3.18285 8.23489 3.6035 9.25043 4.35227 9.99919L13.5342 19.1812C13.8338 19.4798 14.0026 19.8852 14.0034 20.3082C14.0042 20.7313 13.837 21.1373 13.5386 21.4371Z"/>
<path d="M18.0012 25.8997C16.6533 27.2441 14.8272 27.9992 12.9234 27.9992C11.0197 27.9992 9.19358 27.2441 7.84571 25.8997L2.04986 20.0966C1.88902 19.9515 1.75941 19.7751 1.66891 19.5784C1.57841 19.3816 1.52892 19.1684 1.52346 18.9519C1.51799 18.7353 1.55667 18.5199 1.63713 18.3188C1.71758 18.1177 1.83814 17.9351 1.99145 17.7821C2.14477 17.6291 2.32762 17.5089 2.52889 17.4288C2.73015 17.3487 2.94561 17.3105 3.16214 17.3163C3.37867 17.3222 3.59173 17.3721 3.78835 17.463C3.98497 17.5539 4.16104 17.6838 4.30582 17.8449L10.1017 23.6481C10.8516 24.388 11.8637 24.8013 12.9172 24.7977C13.9707 24.7942 14.98 24.3741 15.7249 23.6292C16.4698 22.8843 16.8899 21.875 16.8934 20.8215C16.8969 19.768 16.4837 18.7559 15.7437 18.006L6.56177 8.81966C6.26242 8.52031 6.09425 8.1143 6.09425 7.69096C6.09425 7.26761 6.26242 6.8616 6.56177 6.56225C6.86112 6.2629 7.26713 6.09473 7.69048 6.09473C8.11382 6.09473 8.51983 6.2629 8.81918 6.56225L18.0012 15.7442C19.346 17.0919 20.1013 18.918 20.1013 20.8219C20.1013 22.7258 19.346 24.552 18.0012 25.8997Z"/>
</svg>
